<?xml version="1.0" standalone="no"?>
<!DOCTYPE svg PUBLIC "-//W3C//DTD SVG 1.1//EN" "http://www.w3.org/Graphics/SVG/1.1/DTD/svg11.dtd" >
<svg>
<metadata>
Created by FontForge 20110222 at Wed Dec 17 12:06:46 2014
 By deploy user
[c] Copyright 1993, 1999, 2000, Tobias Frere-Jones. Designed by Tobias Frere-Jones. Produced by The Font Bureau, Inc. All rights reserved.
</metadata>
<defs>
<font id="Interstate-RegularCondensed" horiz-adv-x="750" >
  <font-face 
    font-family="Interstate Regular Cond"
    font-weight="400"
    font-stretch="condensed"
    units-per-em="1000"
    panose-1="2 0 5 6 3 0 0 2 0 4"
    ascent="800"
    descent="-200"
    x-height="525"
    cap-height="700"
    bbox="-71 -193 1160 910"
    underline-thickness="20"
    underline-position="-113"
    unicode-range="U+0020-FB02"
  />
<missing-glyph horiz-adv-x="220" 
 />
    <glyph glyph-name=".notdef" horiz-adv-x="220" 
 />
    <glyph glyph-name="NUL" horiz-adv-x="0" 
 />
    <glyph glyph-name="nonmarkingreturn" horiz-adv-x="220" 
 />
    <glyph glyph-name="space" unicode=" " horiz-adv-x="220" 
 />
    <glyph glyph-name="lslash" unicode="&#x142;" horiz-adv-x="248" 
d="M214 340l-43 -35v-305h-94v237l-43 -34v105l43 34v337l94 50v-319l43 35v-105z" />
    <glyph glyph-name="Scaron" unicode="&#x160;" horiz-adv-x="443" 
d="M403 181q0 -42 -12.5 -77.5t-36.5 -61t-60 -39.5t-82 -14q-66 0 -110.5 31.5t-74.5 82.5l77 62q29 -45 55.5 -61.5t58.5 -16.5q40 0 62 23t22 66q0 20 -5 37t-18 33.5t-36 35t-58 41.5q-30 19 -55.5 39.5t-44.5 45t-30 56t-11 72.5q0 38 12.5 70t35.5 55.5t55.5 36.5
t73.5 13q61 0 99.5 -24.5t70.5 -70.5l-72 -64q-13 17 -24 28.5t-22.5 19t-25 10.5t-29.5 3q-35 0 -54 -20.5t-19 -53.5q0 -20 5 -35.5t17 -30.5t31.5 -30.5t48.5 -34.5q33 -21 61.5 -42.5t49.5 -48t33 -59.5t12 -77zM368 910l-102 -160h-104l-102 160h78l77 -88l77 88h76z
" />
    <glyph glyph-name="scaron" unicode="&#x161;" horiz-adv-x="389" 
d="M351 144q0 -75 -43 -115t-120 -40q-42 0 -84 15t-77 41l37 80q72 -45 122 -45q32 0 50.5 15.5t18.5 41.5q0 14 -5.5 25t-17.5 22t-31.5 23t-46.5 28q-24 14 -44.5 28.5t-34.5 32t-22 40.5t-8 54q0 69 39 107.5t111 38.5q40 0 77 -13t66 -36l-39 -81q-26 18 -53.5 28.5
t-52.5 10.5q-27 0 -39.5 -13t-12.5 -33q0 -12 3.5 -21.5t13 -19.5t26 -21.5t43.5 -26.5q30 -17 53 -33t38.5 -35t24 -42.5t8.5 -55.5zM343 755l-102 -160h-104l-102 160h78l77 -88l77 88h76z" />
    <glyph glyph-name="Yacute" unicode="&#xdd;" horiz-adv-x="493" 
d="M471 700l-173 -387v-313h-98v310l-178 390h111l62 -146q6 -13 14 -34t16.5 -43t15 -41t9.5 -28l9.5 28.5t14.5 41t16 42.5t14 35l60 145h107zM425 900l-145 -160h-82l92 160h135z" />
    <glyph glyph-name="yacute" unicode="&#xfd;" horiz-adv-x="434" 
d="M412 525l-207 -710h-94l57 185l-146 525h102l61 -249q4 -15 8.5 -35.5l9 -41t8 -38.5t5.5 -28q2 10 6 28t8.5 39t9 41.5t8.5 35.5l62 248h102zM391 746l-145 -160h-82l92 160h135z" />
    <glyph glyph-name="Thorn" unicode="&#xde;" horiz-adv-x="478" 
d="M452 368q0 -53 -16.5 -93t-44.5 -66t-64.5 -39t-76.5 -13h-82v-157h-98v700h98v-128h87q37 0 72.5 -11.5t63 -36t44.5 -63.5t17 -93zM351 365q0 59 -30.5 85t-72.5 26h-80v-224h83q43 0 71.5 28t28.5 85z" />
    <glyph glyph-name="thorn" unicode="&#xfe;" horiz-adv-x="448" 
d="M409 257q0 -132 -43.5 -200t-121.5 -68q-53 0 -91 39v-171l-96 -50v872l96 50v-239q19 20 41 33t57 13q36 0 65 -14t49.5 -47t32 -86.5t11.5 -131.5zM312 252q0 103 -19.5 148.5t-61.5 45.5q-24 0 -44.5 -13.5t-33.5 -34.5v-272q16 -24 38 -35.5t45 -11.5q37 0 56.5 40
t19.5 133z" />
    <glyph glyph-name="Zcaron" unicode="&#x17d;" horiz-adv-x="460" 
d="M413 0h-372v91l200 394q9 17 19 36.5t19.5 37t17.5 31.5l12 21q-16 -1 -45.5 -1.5t-55.5 -0.5h-141v91h340v-91l-201 -395q-9 -17 -19 -36t-19.5 -36.5t-17.5 -31.5l-12 -21q16 1 45.5 1.5t55.5 0.5h174v-91zM386 905l-102 -160h-104l-102 160h78l77 -88l77 88h76z" />
    <glyph glyph-name="zcaron" unicode="&#x17e;" horiz-adv-x="407" 
d="M361 0h-325v82l175 281q14 23 26.5 42.5t22.5 31.5q-7 0 -19 -0.5t-25 -0.5h-26h-23h-114v89h308v-81l-170 -282q-14 -23 -26.5 -42.5t-22.5 -31.5q7 0 19 0.5t25 0.5h26h23h126v-89zM356 755l-102 -160h-104l-102 160h78l77 -88l77 88h76z" />
    <glyph glyph-name="onehalf" unicode="&#xbd;" 
d="M730 346l-179 -125q-9 -5 -16 -2q-5 5 -6.5 8.5t0.5 11.5l19 61h-127v-137l63 20q10 4 18 -6q4 -8 -3 -17l-124 -178l-126 178q-5 10 -2 17q9 11 20 6l62 -20v137h-127l19 -61q2 -8 0 -11.5t-7 -8.5q-7 -3 -17 2l-177 125l179 125q9 6 15 3q10 -8 7 -19l-19 -63h127v134
l-62 -19q-7 -3 -11 -0.5t-9 7.5q-3 6 2 17l126 177l124 -178q6 -9 3 -16q-8 -9 -18 -7l-63 19v-134h127l-19 63q-3 11 6 19q7 3 16 -3z" />
    <glyph glyph-name="onequarter" unicode="&#xbc;" 
d="M730 346l-179 -125q-9 -5 -16 -2q-5 5 -6.5 8.5t0.5 11.5l19 61h-127v-137l63 20q10 4 18 -6q4 -8 -3 -17l-124 -178l-126 178q-5 10 -2 17q9 11 20 6l62 -20v137h-127l19 -61q2 -8 0 -11.5t-7 -8.5q-7 -3 -17 2l-177 125l179 125q9 6 15 3q10 -8 7 -19l-19 -63h127v134
l-62 -19q-7 -3 -11 -0.5t-9 7.5q-3 6 2 17l126 177l124 -178q6 -9 3 -16q-8 -9 -18 -7l-63 19v-134h127l-19 63q-3 11 6 19q7 3 16 -3z" />
    <glyph glyph-name="onesuperior" unicode="&#xb9;" 
d="M730 346l-179 -125q-9 -5 -16 -2q-5 5 -6.5 8.5t0.5 11.5l19 61h-127v-137l63 20q10 4 18 -6q4 -8 -3 -17l-124 -178l-126 178q-5 10 -2 17q9 11 20 6l62 -20v137h-127l19 -61q2 -8 0 -11.5t-7 -8.5q-7 -3 -17 2l-177 125l179 125q9 6 15 3q10 -8 7 -19l-19 -63h127v134
l-62 -19q-7 -3 -11 -0.5t-9 7.5q-3 6 2 17l126 177l124 -178q6 -9 3 -16q-8 -9 -18 -7l-63 19v-134h127l-19 63q-3 11 6 19q7 3 16 -3z" />
    <glyph glyph-name="threequarters" unicode="&#xbe;" 
d="M730 346l-179 -125q-9 -5 -16 -2q-5 5 -6.5 8.5t0.5 11.5l19 61h-127v-137l63 20q10 4 18 -6q4 -8 -3 -17l-124 -178l-126 178q-5 10 -2 17q9 11 20 6l62 -20v137h-127l19 -61q2 -8 0 -11.5t-7 -8.5q-7 -3 -17 2l-177 125l179 125q9 6 15 3q10 -8 7 -19l-19 -63h127v134
l-62 -19q-7 -3 -11 -0.5t-9 7.5q-3 6 2 17l126 177l124 -178q6 -9 3 -16q-8 -9 -18 -7l-63 19v-134h127l-19 63q-3 11 6 19q7 3 16 -3z" />
    <glyph glyph-name="threesuperior" unicode="&#xb3;" 
d="M730 346l-179 -125q-9 -5 -16 -2q-5 5 -6.5 8.5t0.5 11.5l19 61h-127v-137l63 20q10 4 18 -6q4 -8 -3 -17l-124 -178l-126 178q-5 10 -2 17q9 11 20 6l62 -20v137h-127l19 -61q2 -8 0 -11.5t-7 -8.5q-7 -3 -17 2l-177 125l179 125q9 6 15 3q10 -8 7 -19l-19 -63h127v134
l-62 -19q-7 -3 -11 -0.5t-9 7.5q-3 6 2 17l126 177l124 -178q6 -9 3 -16q-8 -9 -18 -7l-63 19v-134h127l-19 63q-3 11 6 19q7 3 16 -3z" />
    <glyph glyph-name="twosuperior" unicode="&#xb2;" 
d="M730 346l-179 -125q-9 -5 -16 -2q-5 5 -6.5 8.5t0.5 11.5l19 61h-127v-137l63 20q10 4 18 -6q4 -8 -3 -17l-124 -178l-126 178q-5 10 -2 17q9 11 20 6l62 -20v137h-127l19 -61q2 -8 0 -11.5t-7 -8.5q-7 -3 -17 2l-177 125l179 125q9 6 15 3q10 -8 7 -19l-19 -63h127v134
l-62 -19q-7 -3 -11 -0.5t-9 7.5q-3 6 2 17l126 177l124 -178q6 -9 3 -16q-8 -9 -18 -7l-63 19v-134h127l-19 63q-3 11 6 19q7 3 16 -3z" />
    <glyph glyph-name="brokenbar" unicode="&#xa6;" 
d="M730 346l-179 -125q-9 -5 -16 -2q-5 5 -6.5 8.5t0.5 11.5l19 61h-127v-137l63 20q10 4 18 -6q4 -8 -3 -17l-124 -178l-126 178q-5 10 -2 17q9 11 20 6l62 -20v137h-127l19 -61q2 -8 0 -11.5t-7 -8.5q-7 -3 -17 2l-177 125l179 125q9 6 15 3q10 -8 7 -19l-19 -63h127v134
l-62 -19q-7 -3 -11 -0.5t-9 7.5q-3 6 2 17l126 177l124 -178q6 -9 3 -16q-8 -9 -18 -7l-63 19v-134h127l-19 63q-3 11 6 19q7 3 16 -3z" />
    <glyph glyph-name="minus" unicode="&#x2212;" 
d="M730 346l-179 -125q-9 -5 -16 -2q-5 5 -6.5 8.5t0.5 11.5l19 61h-127v-137l63 20q10 4 18 -6q4 -8 -3 -17l-124 -178l-126 178q-5 10 -2 17q9 11 20 6l62 -20v137h-127l19 -61q2 -8 0 -11.5t-7 -8.5q-7 -3 -17 2l-177 125l179 125q9 6 15 3q10 -8 7 -19l-19 -63h127v134
l-62 -19q-7 -3 -11 -0.5t-9 7.5q-3 6 2 17l126 177l124 -178q6 -9 3 -16q-8 -9 -18 -7l-63 19v-134h127l-19 63q-3 11 6 19q7 3 16 -3z" />
    <glyph glyph-name="multiply" unicode="&#xd7;" 
d="M730 346l-179 -125q-9 -5 -16 -2q-5 5 -6.5 8.5t0.5 11.5l19 61h-127v-137l63 20q10 4 18 -6q4 -8 -3 -17l-124 -178l-126 178q-5 10 -2 17q9 11 20 6l62 -20v137h-127l19 -61q2 -8 0 -11.5t-7 -8.5q-7 -3 -17 2l-177 125l179 125q9 6 15 3q10 -8 7 -19l-19 -63h127v134
l-62 -19q-7 -3 -11 -0.5t-9 7.5q-3 6 2 17l126 177l124 -178q6 -9 3 -16q-8 -9 -18 -7l-63 19v-134h127l-19 63q-3 11 6 19q7 3 16 -3z" />
    <glyph glyph-name="Lslash" unicode="&#x141;" horiz-adv-x="428" 
d="M402 0h-322v227l-40 -33v105l40 33v368h96v-300l103 82v-105l-103 -82v-199h226v-96z" />
    <glyph glyph-name="exclam" unicode="!" horiz-adv-x="248" 
d="M173 352l-16 -150h-66l-16 150v348h98v-348zM192 57q0 -29 -19.5 -48.5t-48.5 -19.5t-48.5 19.5t-19.5 48.5t19.5 49t48.5 20t48.5 -20t19.5 -49z" />
    <glyph glyph-name="quotedbl" unicode="&#x22;" horiz-adv-x="442" 
d="M380 700l-25 -327h-67l-25 327h117zM179 700l-25 -327h-67l-25 327h117z" />
    <glyph glyph-name="numbersign" unicode="#" horiz-adv-x="600" 
d="M555 160h-95v-160h-93v160h-134v-160h-93v160h-95v90h95v200h-95v90h95v160h93v-160h134v160h93v-160h95v-90h-95v-200h95v-90zM367 250v200h-134v-200h134z" />
    <glyph glyph-name="dollar" unicode="$" horiz-adv-x="443" 
d="M403 186q0 -72 -35 -120t-104 -62v-84h-98v84q-48 10 -81 38.5t-58 70.5l77 62q29 -45 55.5 -63t58.5 -18q40 0 62 22t22 65q0 20 -5 36t-18 32t-36 33.5t-58 40.5q-30 19 -55.5 38.5t-44.5 43.5t-30 54.5t-11 71.5q0 63 32.5 106t89.5 57v86h98v-83q42 -8 71.5 -31
t55.5 -60l-72 -64q-13 17 -24 29t-22.5 20t-25 11.5t-29.5 3.5q-35 0 -54 -19.5t-19 -52.5q0 -20 5 -35t17 -29t31.5 -28.5t48.5 -33.5q33 -21 61.5 -42t49.5 -46.5t33 -57.5t12 -76z" />
    <glyph glyph-name="percent" unicode="%" horiz-adv-x="855" 
d="M347 494q0 -48 -9 -88t-27.5 -69t-47 -45t-66.5 -16t-66 16t-46 44.5t-26.5 68t-8.5 87.5t8.5 88.5t27 69.5t46.5 45t67 16q40 0 68 -16t46 -45t26 -68.5t8 -87.5zM653 700l-369 -700h-88l369 700h88zM805 207q0 -48 -9 -88t-27.5 -69t-47 -45t-66.5 -16t-66 16t-46 44.5
t-26.5 68t-8.5 87.5t8.5 88.5t27 69.5t46.5 45t67 16q40 0 68 -16t46 -45t26 -68.5t8 -87.5zM265 492q0 63 -15.5 102t-51.5 39t-50.5 -38t-14.5 -101t15 -102.5t51 -39.5q18 0 30.5 11t20.5 30.5t11.5 44.5t3.5 54zM723 205q0 63 -15.5 102t-51.5 39t-50.5 -38t-14.5 -101
t15 -102.5t51 -39.5q18 0 30.5 11t20.5 30.5t11.5 44.5t3.5 54z" />
    <glyph glyph-name="ampersand" unicode="&#x26;" horiz-adv-x="480" 
d="M471 0h-101l-35 59q-27 -35 -61 -52.5t-80 -17.5q-83 0 -122.5 48t-39.5 125q0 62 29.5 116.5t84.5 99.5l-17 30q-14 24 -24.5 44t-18.5 38.5t-12 37t-4 38.5q0 32 12 59t33 46t50.5 29.5t64.5 10.5q50 0 86 -14.5t71 -41.5l-47 -80q-31 22 -55 33t-56 11
q-31 0 -46 -15.5t-15 -35.5q0 -25 7.5 -49t25.5 -56l126 -217q13 45 27 105l80 -22q-13 -54 -25.5 -98t-26.5 -80zM288 139l-98 166q-34 -35 -48 -69t-14 -63q0 -92 75 -92q27 0 47.5 13.5t37.5 44.5z" />
    <glyph glyph-name="quotesingle" unicode="'" horiz-adv-x="241" 
d="M179 700l-25 -327h-67l-25 327h117z" />
    <glyph glyph-name="parenleft" unicode="(" horiz-adv-x="310" 
d="M274 -70l-53 -40q-35 41 -66 84.5t-54.5 93t-37 106.5t-13.5 126q0 71 13 128.5t36 107t54.5 93t67.5 87.5l53 -40q-29 -39 -52 -79t-39 -85t-25 -96t-9 -111q0 -62 9 -114t25 -97t39 -85.5t52 -78.5z" />
    <glyph glyph-name="parenright" unicode=")" horiz-adv-x="310" 
d="M260 306q0 -71 -13 -128.5t-36 -107t-54.5 -93.5t-67.5 -87l-53 40q28 39 51.5 79t39.5 85t25 96t9 111q0 62 -9 114t-25 97t-39.5 85.5t-51.5 78.5l53 40q35 -41 66 -84.5t54.5 -93t37 -106.5t13.5 -126z" />
    <glyph glyph-name="asterisk" unicode="*" horiz-adv-x="429" 
d="M396 462l-41 -71l-115 82l15 -140h-80l14 141l-115 -83l-41 71l128 57l-127 58l41 70l114 -84l-14 140h80l-15 -137l114 82l41 -71l-131 -58z" />
    <glyph glyph-name="plus" unicode="+" horiz-adv-x="453" 
d="M418 297h-143v-158h-97v158h-143v94h143v158h97v-158h143v-94z" />
    <glyph glyph-name="comma" unicode="," horiz-adv-x="232" 
d="M187 126l-67 -239h-65l13 239h119z" />
    <glyph glyph-name="hyphen" unicode="-" horiz-adv-x="300" 
d="M260 316h-220v100h220v-100z" />
    <glyph glyph-name="period" unicode="." horiz-adv-x="232" 
d="M186 59q0 -29 -20.5 -49.5t-49.5 -20.5t-49.5 20.5t-20.5 49.5t20.5 50t49.5 21t49.5 -21t20.5 -50z" />
    <glyph glyph-name="slash" unicode="/" horiz-adv-x="350" 
d="M356 790l-265 -880h-97l265 880h97z" />
    <glyph glyph-name="zero" unicode="0" horiz-adv-x="499" 
d="M456 351q0 -76 -11.5 -142t-37 -115t-65 -77t-94.5 -28q-56 0 -94.5 27.5t-63.5 76t-36 114.5t-11 142t11.5 142t36 115t63.5 77t95 28t95.5 -27.5t64 -75.5t36 -114t11.5 -143zM358 349q0 51 -5.5 99t-18 85t-34 59.5t-53.5 22.5t-52.5 -22t-32.5 -58.5t-16.5 -84.5
t-4.5 -99t5 -99t18 -85t34 -59.5t53 -22.5t52.5 22t32.5 58.5t17 84.5t5 99z" />
    <glyph glyph-name="one" unicode="1" horiz-adv-x="275" 
d="M210 0h-97v551h-94v68q48 6 74 23.5t37 57.5h80v-700z" />
    <glyph glyph-name="two" unicode="2" horiz-adv-x="474" 
d="M420 0h-372q4 79 17 137t37 103.5t58.5 83t82.5 76.5q37 30 54 57.5t17 63.5q0 45 -22.5 68.5t-62.5 23.5q-32 0 -60 -15.5t-57 -42.5l-61 71q35 36 78.5 60.5t105.5 24.5q88 0 133.5 -49t45.5 -128q0 -32 -6 -58.5t-20 -51t-36.5 -48t-54.5 -50.5q-28 -23 -51 -46
t-40.5 -49.5t-29 -58.5t-16.5 -74h260v-98z" />
    <glyph glyph-name="three" unicode="3" horiz-adv-x="465" 
d="M418 201q0 -51 -15.5 -90.5t-42.5 -66.5t-64 -41t-80 -14q-66 0 -111.5 28t-83.5 84l72 61q32 -44 62 -61t66 -17q43 0 71 29t28 83q0 127 -138 127h-23v94h25q54 0 87 28.5t33 82.5q0 36 -20 62t-65 26q-28 0 -53 -15t-55 -44l-60 69q38 39 77 62t95 23q39 0 72 -11.5
t57 -34t37 -56t13 -78.5q0 -32 -7.5 -57t-21 -43.5t-31.5 -31.5t-39 -22q21 -7 41.5 -19.5t37 -33.5t26.5 -51t10 -72z" />
    <glyph glyph-name="four" unicode="4" horiz-adv-x="475" 
d="M442 169h-48v-169h-95v169h-271v77l273 454h93v-438h48v-93zM302 544q-12 -22 -24.5 -45t-28.5 -49l-68 -111q-15 -25 -26 -42.5t-23 -35.5q15 0 33 0.5t39 0.5h95v182q0 26 1 50t2 50z" />
    <glyph glyph-name="five" unicode="5" horiz-adv-x="474" 
d="M431 238q0 -116 -54 -182.5t-165 -66.5q-54 0 -97.5 20.5t-76.5 55.5l55 74q26 -24 57.5 -39.5t66.5 -15.5q57 0 87 39.5t30 110.5q0 29 -6 54t-18.5 44t-31 29.5t-43.5 10.5q-33 0 -54 -13t-37 -37l-84 16l18 362h331v-96h-241l-9 -163q19 12 39 19t51 7q88 0 135 -61
t47 -168z" />
    <glyph glyph-name="six" unicode="6" horiz-adv-x="468" 
d="M435 216q0 -52 -14.5 -94t-41 -71.5t-64 -45.5t-84.5 -16q-42 0 -76.5 15t-59 46.5t-38.5 80.5t-14 117q0 101 20.5 183t60.5 142t99 95.5t136 42.5v-92q-45 -6 -81 -26t-62.5 -51t-44 -70.5t-24.5 -84.5q20 22 46.5 33.5t63.5 11.5q40 0 72.5 -16t56 -44.5t36.5 -68
t13 -87.5zM340 214q0 56 -27 90.5t-76 34.5q-48 0 -73.5 -34.5t-25.5 -96.5q0 -56 25.5 -91t73.5 -35q50 0 76.5 35.5t26.5 96.5z" />
    <glyph glyph-name="seven" unicode="7" horiz-adv-x="440" 
d="M402 600q-52 -61 -85.5 -129.5t-52.5 -144t-26.5 -157.5t-7.5 -169h-98q0 93 8.5 178t28 160.5t51 142.5t77.5 124h-267v95h372v-100z" />
    <glyph glyph-name="eight" unicode="8" horiz-adv-x="478" 
d="M437 211q0 -51 -15 -92t-41 -70t-61.5 -44.5t-76.5 -15.5q-40 0 -76 13.5t-63 40.5t-43 68t-16 96q0 68 24.5 109.5t61.5 66.5q-32 20 -51.5 54t-19.5 81q0 44 13.5 80t37.5 61t57.5 38.5t73.5 13.5q41 0 74.5 -14t57 -39t36.5 -60t13 -78q0 -49 -21 -83t-51 -54
q38 -26 62 -68t24 -104zM327 520q0 46 -22.5 71.5t-63.5 25.5t-63 -25.5t-22 -71.5q0 -41 22.5 -68t63.5 -27q42 0 63.5 27t21.5 68zM341 209q0 57 -26 90t-73 33q-48 0 -74.5 -33t-26.5 -90q0 -63 28 -94.5t76 -31.5q45 0 70.5 32t25.5 94z" />
    <glyph glyph-name="nine" unicode="9" horiz-adv-x="468" 
d="M425 452q0 -101 -20.5 -183t-60.5 -142t-99 -95.5t-136 -42.5v92q45 6 81 26t62.5 51t44 70.5t24.5 84.5q-20 -22 -46.5 -33.5t-63.5 -11.5q-40 0 -72.5 16t-56 44.5t-36.5 68t-13 87.5q0 52 14.5 94t41 71.5t64 45.5t84.5 16q42 0 76.5 -15t59 -46.5t38.5 -80.5t14 -117
zM330 492q0 56 -25.5 91t-73.5 35q-50 0 -76.5 -35.5t-26.5 -96.5q0 -56 27 -90.5t76 -34.5q48 0 73.5 34.5t25.5 96.5z" />
    <glyph glyph-name="colon" unicode=":" horiz-adv-x="232" 
d="M186 465q0 -29 -20.5 -49.5t-49.5 -20.5t-49.5 20.5t-20.5 49.5t20.5 50t49.5 21t49.5 -21t20.5 -50zM186 59q0 -29 -20.5 -49.5t-49.5 -20.5t-49.5 20.5t-20.5 49.5t20.5 50t49.5 21t49.5 -21t20.5 -50z" />
    <glyph glyph-name="semicolon" unicode=";" horiz-adv-x="232" 
d="M186 465q0 -29 -20.5 -49.5t-49.5 -20.5t-49.5 20.5t-20.5 49.5t20.5 50t49.5 21t49.5 -21t20.5 -50zM177 126l-67 -239h-65l13 239h119z" />
    <glyph glyph-name="less" unicode="&#x3c;" horiz-adv-x="324" 
d="M278 90l-241 210v88l241 210v-120l-157 -133l157 -134v-121z" />
    <glyph glyph-name="equal" unicode="=" horiz-adv-x="500" 
d="M435 411h-370v95h370v-95zM435 182h-370v95h370v-95z" />
    <glyph glyph-name="greater" unicode="&#x3e;" horiz-adv-x="324" 
d="M287 300l-241 -210v120l157 133l-157 134v121l241 -210v-88z" />
    <glyph glyph-name="question" unicode="?" horiz-adv-x="451" 
d="M411 537q0 -36 -8 -62.5t-21.5 -47.5t-33 -37.5t-41.5 -31.5q-20 -14 -31 -27.5t-16 -31t-6.5 -41t-1.5 -56.5h-101q0 44 2.5 76.5t13 58.5t31 48t55.5 45q57 38 57 98q0 42 -24.5 63t-63.5 21q-38 0 -71 -17t-71 -52l-62 73q43 43 93.5 69t114.5 26q91 0 138 -48
t47 -126zM273 57q0 -29 -19.5 -48.5t-48.5 -19.5t-48.5 19.5t-19.5 48.5t19.5 49t48.5 20t48.5 -20t19.5 -49z" />
    <glyph glyph-name="at" unicode="@" horiz-adv-x="646" 
d="M601 360q0 -60 -8.5 -99.5t-24.5 -63t-37.5 -33.5t-46.5 -10q-30 0 -50.5 17t-31.5 43q-14 -24 -40 -42t-59 -18q-22 0 -43 8.5t-37.5 25.5t-26.5 42.5t-10 60.5q0 32 9 56t25 39.5t36 23.5t43 8t47 -8t37 -18v51q0 32 -17 45.5t-52 13.5q-40 0 -74 -24l-22 49
q22 15 49 24.5t53 9.5q58 0 90 -29.5t32 -90.5v-168q0 -27 10 -45.5t37 -18.5q32 0 44.5 38t12.5 114q0 70 -16.5 125t-46 92t-70.5 56.5t-90 19.5q-51 0 -91.5 -21.5t-69 -61.5t-44 -95.5t-15.5 -124.5t15.5 -125.5t44.5 -96.5t70 -62t92 -22q26 0 50.5 5t47.5 18l20 -47
q-32 -20 -59.5 -26t-60.5 -6q-60 0 -111 25.5t-88 73t-58 114t-21 148.5t21 148.5t58 114t88 73t111 25.5q61 0 112.5 -25t88 -71t57 -111t20.5 -144zM383 268v63q-11 11 -30.5 20.5t-45.5 9.5q-31 0 -45.5 -18t-14.5 -50q0 -36 13.5 -57.5t50.5 -21.5q21 0 41 14.5t31 39.5
z" />
    <glyph glyph-name="A" unicode="A" horiz-adv-x="494" 
d="M469 0h-107l-41 185h-152l-40 -185h-104l172 700h101zM301 278l-26 118q-4 17 -8.5 39.5t-8.5 44.5t-7.5 40.5t-5.5 28.5q-2 -10 -5.5 -28.5t-7.5 -40t-8.5 -44t-8.5 -40.5l-26 -118h112z" />
    <glyph glyph-name="B" unicode="B" horiz-adv-x="497" 
d="M452 211q0 -105 -54.5 -158t-141.5 -53h-186v700h176q42 0 77.5 -10.5t61.5 -33t40.5 -57.5t14.5 -84q0 -43 -20 -84t-62 -61q45 -16 69.5 -59t24.5 -100zM340 512q0 52 -25.5 72.5t-65.5 20.5h-82v-190h80q39 0 66 23t27 74zM352 211q0 59 -30.5 84.5t-76.5 25.5h-78
v-226h88q45 0 71 26.5t26 89.5z" />
    <glyph glyph-name="C" unicode="C" horiz-adv-x="480" 
d="M437 166q-8 -39 -22 -72t-36 -56t-53.5 -36t-74.5 -13q-57 0 -96 28.5t-63.5 77t-35.5 114t-11 140.5q0 76 12 142t37 115t64.5 77t95.5 28q44 0 75.5 -12.5t53 -35.5t34.5 -54.5t19 -68.5l-99 -25q-10 48 -27.5 72.5t-58.5 24.5q-32 0 -52.5 -23.5t-32 -61t-16 -84
t-4.5 -92.5q0 -48 5.5 -95.5t18.5 -84.5t34.5 -60t53.5 -23q35 0 54.5 25t33.5 82z" />
    <glyph glyph-name="D" unicode="D" horiz-adv-x="507" 
d="M462 353q0 -78 -14 -143t-41.5 -111.5t-69.5 -72.5t-97 -26h-170v700h170q58 0 100 -25t69 -70.5t40 -109.5t13 -142zM361 353q0 46 -5.5 91t-19.5 80.5t-38 57.5t-61 22h-69v-508h72q35 0 58.5 23t37.5 59.5t19.5 82.5t5.5 92z" />
    <glyph glyph-name="E" unicode="E" horiz-adv-x="445" 
d="M412 0h-342v700h329v-95h-231v-187h151v-94h-151v-229h244v-95z" />
    <glyph glyph-name="F" unicode="F" horiz-adv-x="428" 
d="M404 605h-236v-192h151v-94h-151v-319h-98v700h334v-95z" />
    <glyph glyph-name="G" unicode="G" horiz-adv-x="511" 
d="M453 205q0 -44 -11 -83.5t-34.5 -69t-61 -46.5t-90.5 -17q-56 0 -96 28.5t-65.5 77t-37.5 114.5t-12 141q0 79 13 145.5t39.5 114.5t66.5 74.5t95 26.5q85 0 128.5 -46t58.5 -125l-98 -26q-12 54 -33 76t-59 22q-29 0 -49.5 -20t-34 -55t-20 -83t-6.5 -104
q0 -45 5.5 -91.5t18.5 -84.5t35.5 -62t57.5 -24q50 0 70 30.5t20 95.5v50h-78v96h178v-155z" />
    <glyph glyph-name="H" unicode="H" horiz-adv-x="532" 
d="M462 0h-98v324h-196v-324h-98v700h98v-280h196v280h98v-700z" />
    <glyph glyph-name="I" unicode="I" horiz-adv-x="248" 
d="M173 0h-98v700h98v-700z" />
    <glyph glyph-name="J" unicode="J" horiz-adv-x="438" 
d="M371 200q0 -101 -43.5 -156t-134.5 -55q-44 0 -75.5 13.5t-52 37.5t-32.5 57t-17 73l89 23q11 -59 30.5 -83t57.5 -24q46 0 63 30t17 81v503h98v-500z" />
    <glyph glyph-name="K" unicode="K" horiz-adv-x="482" 
d="M462 0h-106l-130 351l-58 -94v-257h-98v700h98v-177v-25.5t-0.5 -32t-1 -31.5t-0.5 -23q4 7 11 20t15.5 27.5t16 28.5t13.5 23l115 190h111l-152 -246z" />
    <glyph glyph-name="L" unicode="L" horiz-adv-x="418" 
d="M392 0h-322v700h98v-604h224v-96z" />
    <glyph glyph-name="M" unicode="M" horiz-adv-x="612" 
d="M542 0h-96v282v41.5t0.5 51.5t1 48t0.5 32q-3 -11 -9.5 -33t-14.5 -48.5t-16 -53.5t-14 -46l-90 -293l-90 293q-6 19 -14 46t-16 53.5t-14.5 48.5t-9.5 33q0 -10 0.5 -32t1 -48t0.5 -51.5v-41.5v-282h-92v700h103l90 -291q5 -16 11.5 -38t12.5 -44.5t11.5 -42t7.5 -28.5
q3 10 8 29.5t11.5 42.5l13 46t11.5 38l90 288h102v-700z" />
    <glyph glyph-name="N" unicode="N" horiz-adv-x="532" 
d="M462 0h-80l-169 375q-5 11 -12 27.5t-14 33.5t-13.5 31.5t-9.5 22.5q0 -10 0.5 -28t1 -39t0.5 -40.5v-32.5v-350h-96v700h98l151 -333q5 -11 12 -27.5t14 -33.5t13.5 -32t9.5 -22q0 10 -0.5 28t-1 39t-0.5 40.5v32.5v308h96v-700z" />
    <glyph glyph-name="O" unicode="O" horiz-adv-x="513" 
d="M468 351q0 -76 -12.5 -142t-38.5 -115t-66.5 -77t-95.5 -28q-56 0 -95.5 27.5t-65 76t-37.5 114.5t-12 142t12 142t38 115t65.5 77t95.5 28q55 0 95.5 -27.5t66 -76t38 -114.5t12.5 -142zM368 349q0 49 -6 96t-19.5 84.5t-35 60.5t-53.5 23t-53 -22.5t-33.5 -59.5
t-17.5 -84t-5 -96t5.5 -96t19 -84.5t35 -60.5t53.5 -23t53 22.5t34 59.5t18 84t5 96z" />
    <glyph glyph-name="P" unicode="P" horiz-adv-x="478" 
d="M452 496q0 -53 -16.5 -93t-44.5 -66t-64.5 -39t-76.5 -13h-82v-285h-98v700h185q37 0 72.5 -11.5t63 -36t44.5 -63.5t17 -93zM351 493q0 59 -30.5 85t-72.5 26h-80v-224h83q43 0 71.5 28t28.5 85z" />
    <glyph glyph-name="Q" unicode="Q" horiz-adv-x="513" 
d="M468 350q0 -92 -19 -167.5t-57 -123.5l35 -55l-69 -40l-28 43q-16 -8 -34.5 -13t-39.5 -5q-56 0 -95.5 28t-65.5 76.5t-38 114.5t-12 142t12 142t38 114.5t65.5 76.5t95.5 28q55 0 95.5 -28t66 -76.5t38 -114.5t12.5 -142zM368 350q0 49 -5.5 96t-18.5 84t-34.5 60
t-53.5 23t-53.5 -23t-34 -60t-18 -84t-5.5 -96t5.5 -96.5t18 -85t34 -61t53.5 -23.5q13 0 22 4l-48 73l69 40l37 -57q19 40 25.5 94.5t6.5 111.5z" />
    <glyph glyph-name="R" unicode="R" horiz-adv-x="510" 
d="M464 0h-109l-106 305h-81v-305h-98v700h197q38 0 73.5 -11t62.5 -34t43 -60t16 -89q0 -76 -30 -120t-80 -64zM361 503q0 54 -28.5 78t-73.5 24h-91v-206h91q48 0 75 24.5t27 79.5z" />
    <glyph glyph-name="S" unicode="S" horiz-adv-x="443" 
d="M403 181q0 -42 -12.5 -77.5t-36.5 -61t-60 -39.5t-82 -14q-66 0 -110.5 31.5t-74.5 82.5l77 62q29 -45 55.5 -61.5t58.5 -16.5q40 0 62 23t22 66q0 20 -5 37t-18 33.5t-36 35t-58 41.5q-30 19 -55.5 39.5t-44.5 45t-30 56t-11 72.5q0 38 12.5 70t35.5 55.5t55.5 36.5
t73.5 13q61 0 99.5 -24.5t70.5 -70.5l-72 -64q-13 17 -24 28.5t-22.5 19t-25 10.5t-29.5 3q-35 0 -54 -20.5t-19 -53.5q0 -20 5 -35.5t17 -30.5t31.5 -30.5t48.5 -34.5q33 -21 61.5 -42.5t49.5 -48t33 -59.5t12 -77z" />
    <glyph glyph-name="T" unicode="T" horiz-adv-x="422" 
d="M389 604h-129v-604h-98v604h-129v96h356v-96z" />
    <glyph glyph-name="U" unicode="U" horiz-adv-x="526" 
d="M459 208q0 -103 -52.5 -161t-143.5 -58q-44 0 -80 15.5t-61.5 43.5t-40 67t-14.5 87v498h98v-494q0 -22 5 -43t16.5 -37.5t30.5 -27t46 -10.5q29 0 48 10.5t30.5 27.5t16 38t4.5 41v495h97v-492z" />
    <glyph glyph-name="V" unicode="V" horiz-adv-x="484" 
d="M459 700l-181 -700h-73l-180 700h107l81 -351l7.5 -35t9 -43t8.5 -41.5t6 -28.5q2 9 6 28.5t8.5 41l9 43t7.5 35.5l80 351h104z" />
    <glyph glyph-name="W" unicode="W" horiz-adv-x="618" 
d="M590 700l-126 -700h-75l-48 245q-3 16 -8.5 45.5t-11 59.5t-9.5 55.5t-5 34.5q-1 -9 -5 -34.5t-9.5 -55t-10.5 -58t-8 -44.5l-48 -248h-73l-125 700h98l42 -252q3 -16 8 -48t10 -65.5t9.5 -62t5.5 -37.5q1 9 5.5 37.5t9.5 62.5t10 65.5t7 46.5l40 253h75l41 -253
q3 -16 8 -47.5t10 -65t9.5 -62t5.5 -37.5q1 9 5.5 37.5t9.5 62t9.5 65t7.5 48.5l41 252h95z" />
    <glyph glyph-name="X" unicode="X" horiz-adv-x="465" 
d="M437 0h-108l-53 136q-5 13 -11.5 30.5t-13.5 35.5t-12.5 34t-7.5 24q-3 -9 -8.5 -24.5t-12 -33.5l-13 -36t-11.5 -30l-53 -136h-105l153 360l-143 340h108l43 -111q5 -12 11.5 -30.5t13.5 -37t12.5 -34.5t7.5 -24q3 9 8.5 25t12 34.5t13 36.5t11.5 30l43 111h105
l-143 -337z" />
    <glyph glyph-name="Y" unicode="Y" horiz-adv-x="493" 
d="M471 700l-173 -387v-313h-98v310l-178 390h111l62 -146q6 -13 14 -34t16.5 -43t15 -41t9.5 -28l9.5 28.5t14.5 41t16 42.5t14 35l60 145h107z" />
    <glyph glyph-name="Z" unicode="Z" horiz-adv-x="460" 
d="M413 0h-372v91l200 394q9 17 19 36.5t19.5 37t17.5 31.5l12 21q-16 -1 -45.5 -1.5t-55.5 -0.5h-141v91h340v-91l-201 -395q-9 -17 -19 -36t-19.5 -36.5t-17.5 -31.5l-12 -21q16 1 45.5 1.5t55.5 0.5h174v-91z" />
    <glyph glyph-name="bracketleft" unicode="[" horiz-adv-x="325" 
d="M274 -100h-199v800h199v-82h-106v-636h106v-82z" />
    <glyph glyph-name="backslash" unicode="\" horiz-adv-x="350" 
d="M356 -90h-97l-265 880h97z" />
    <glyph glyph-name="bracketright" unicode="]" horiz-adv-x="325" 
d="M250 -100h-199v79h106v642h-106v79h199v-800z" />
    <glyph glyph-name="asciicircum" unicode="^" horiz-adv-x="444" 
d="M414 382h-107l-86 202l-86 -202h-105l152 318h80z" />
    <glyph glyph-name="underscore" unicode="_" horiz-adv-x="350" 
d="M350 -170h-350v88h350v-88z" />
    <glyph glyph-name="grave" unicode="`" horiz-adv-x="400" 
d="M297 595h-82l-145 160h135z" />
    <glyph glyph-name="a" unicode="a" horiz-adv-x="434" 
d="M378 0h-96v36q-20 -23 -46.5 -35t-61.5 -12q-29 0 -55 11t-45.5 33t-31 55t-11.5 77q0 86 48 129t123 43q24 0 44 -4.5t36 -12.5v51q0 38 -15 56.5t-53 18.5q-25 0 -49 -7.5t-54 -25.5l-41 73q36 24 75.5 37t75.5 13q42 0 72 -8t49 -26.5t27.5 -48.5t8.5 -74v-379z
M282 125v105q-17 11 -34.5 15.5t-44.5 4.5q-34 0 -55 -20t-21 -63q0 -47 17.5 -69t48.5 -22q61 0 89 49z" />
    <glyph glyph-name="b" unicode="b" horiz-adv-x="448" 
d="M409 257q0 -132 -43.5 -200t-121.5 -68q-53 0 -91 39v-28h-96v679l96 50v-239q19 20 41 33t57 13q36 0 65 -14t49.5 -47t32 -86.5t11.5 -131.5zM312 252q0 103 -19.5 148.5t-61.5 45.5q-24 0 -44.5 -13.5t-33.5 -34.5v-272q16 -24 38 -35.5t45 -11.5q37 0 56.5 40
t19.5 133z" />
    <glyph glyph-name="c" unicode="c" horiz-adv-x="410" 
d="M375 82q-26 -42 -61 -67.5t-92 -25.5q-82 0 -132.5 66.5t-50.5 204.5q0 139 49.5 207.5t137.5 68.5q28 0 50.5 -7t40.5 -19.5t32 -29.5t25 -36l-69 -60q-20 32 -38 46t-44 14q-46 0 -66.5 -47.5t-20.5 -134.5q0 -84 21 -132.5t69 -48.5q24 0 42 13.5t38 44.5z" />
    <glyph glyph-name="d" unicode="d" horiz-adv-x="448" 
d="M391 0h-96v35q-19 -20 -41 -33t-57 -13q-36 0 -65 14t-49.5 47t-32 86.5t-11.5 131.5q0 132 43.5 200t121.5 68q53 0 91 -39v182l96 50v-729zM295 127v272q-16 24 -38 35.5t-45 11.5q-38 0 -57 -40t-19 -133q0 -103 19.5 -148.5t61.5 -45.5q24 0 44.5 13.5t33.5 34.5z
" />
    <glyph glyph-name="e" unicode="e" horiz-adv-x="450" 
d="M411 264v-16.5t-1 -17.5h-275q5 -78 31 -113.5t68 -35.5q33 0 52.5 9t42.5 30l59 -61q-27 -30 -66 -50t-90 -20q-47 0 -83 19t-60.5 54.5t-37 85.5t-12.5 112q0 69 13.5 120.5t38.5 86t59 52t76 17.5q39 0 73 -17t59 -50.5t39 -84.5t14 -120zM313 313q-2 59 -25 96
t-64 37q-76 0 -88 -133h177z" />
    <glyph glyph-name="f" unicode="f" horiz-adv-x="291" 
d="M278 636q-18 6 -40 6q-35 0 -48 -13.5t-13 -42.5v-61h86v-90h-86v-435h-96v435h-53v90h53v74q0 65 33.5 96t84.5 31q48 0 79 -10v-80z" />
    <glyph glyph-name="g" unicode="g" horiz-adv-x="448" 
d="M391 46q0 -56 -11 -98t-36.5 -71.5t-66 -46.5t-100.5 -23l-27 77q43 6 71.5 15.5t44.5 27t22.5 43t6.5 62.5v4q-19 -21 -41 -34t-57 -13q-36 0 -65 14t-49.5 47t-32 86.5t-11.5 131.5q0 132 43.5 200t121.5 68q53 0 91 -39v28h96v-479zM295 127v272q-16 24 -38 35.5
t-45 11.5q-38 0 -57 -40t-19 -133q0 -103 19.5 -148.5t61.5 -45.5q24 0 44.5 13.5t33.5 34.5z" />
    <glyph glyph-name="h" unicode="h" horiz-adv-x="446" 
d="M392 0h-96v323q0 66 -14.5 94t-50.5 28q-23 0 -43.5 -12.5t-34.5 -35.5v-397h-96v679l96 50v-240q16 20 42 33.5t60 13.5q76 0 106.5 -48.5t30.5 -148.5v-339z" />
    <glyph glyph-name="i" unicode="i" horiz-adv-x="220" 
d="M169 666q0 -24 -17.5 -41.5t-41.5 -17.5q-25 0 -42.5 17.5t-17.5 41.5q0 25 17.5 42.5t42.5 17.5q24 0 41.5 -17.5t17.5 -42.5zM158 0h-96v525h96v-525z" />
    <glyph glyph-name="j" unicode="j" horiz-adv-x="220" 
d="M169 666q0 -24 -17.5 -41.5t-41.5 -17.5q-25 0 -42.5 17.5t-17.5 41.5q0 25 17.5 42.5t42.5 17.5q24 0 41.5 -17.5t17.5 -42.5zM158 19q0 -50 -10.5 -87t-31.5 -62.5t-54 -40.5t-78 -22l-25 78q58 13 80.5 41t22.5 87v512h96v-506z" />
    <glyph glyph-name="k" unicode="k" horiz-adv-x="424" 
d="M397 0h-105l-87 245l-52 -83v-162h-96v679l96 50v-315v-27.5t-0.5 -31.5t-1 -30t-0.5 -24q8 16 20.5 39.5t22.5 41.5l79 143h109l-113 -182z" />
    <glyph glyph-name="l" unicode="l" horiz-adv-x="220" 
d="M158 0h-96v679l96 50v-729z" />
    <glyph glyph-name="m" unicode="m" horiz-adv-x="665" 
d="M611 0h-96v323q0 65 -9.5 93.5t-45.5 28.5q-23 0 -43.5 -12.5t-34.5 -35.5v-397h-96v323q0 65 -9.5 93.5t-45.5 28.5q-23 0 -43.5 -12.5t-34.5 -35.5v-397h-96v525h96v-36q16 20 40 33.5t58 13.5q39 0 64 -13.5t42 -42.5q28 32 58 44t65 12q39 0 64.5 -13t40.5 -38.5
t20.5 -64.5t5.5 -91v-329z" />
    <glyph glyph-name="n" unicode="n" horiz-adv-x="446" 
d="M392 0h-96v323q0 66 -14.5 94t-50.5 28q-23 0 -43.5 -12.5t-34.5 -35.5v-397h-96v525h96v-36q16 20 42 33.5t60 13.5q76 0 106.5 -48.5t30.5 -148.5v-339z" />
    <glyph glyph-name="o" unicode="o" horiz-adv-x="456" 
d="M417 264q0 -138 -52.5 -206.5t-139.5 -68.5q-41 0 -75 16.5t-59 50t-38.5 84.5t-13.5 120q0 139 51 207.5t139 68.5q42 0 76.5 -17t59 -50.5t38.5 -84.5t14 -120zM320 262q0 90 -24 136t-69 46q-91 0 -91 -182q0 -181 92 -181q45 0 68.5 49.5t23.5 131.5z" />
    <glyph glyph-name="p" unicode="p" horiz-adv-x="448" 
d="M409 257q0 -132 -43.5 -200t-121.5 -68q-53 0 -91 39v-171l-96 -50v718h96v-35q19 20 41 33t57 13q36 0 65 -14t49.5 -47t32 -86.5t11.5 -131.5zM312 252q0 103 -19.5 148.5t-61.5 45.5q-24 0 -44.5 -13.5t-33.5 -34.5v-272q16 -24 38 -35.5t45 -11.5q37 0 56.5 40
t19.5 133z" />
    <glyph glyph-name="q" unicode="q" horiz-adv-x="448" 
d="M391 -143l-96 -50v228q-19 -20 -41 -33t-57 -13q-36 0 -65 14t-49.5 47t-32 86.5t-11.5 131.5q0 132 43.5 200t121.5 68q53 0 91 -39v28h96v-668zM295 127v272q-16 24 -38 35.5t-45 11.5q-38 0 -57 -40t-19 -133q0 -103 19.5 -148.5t61.5 -45.5q24 0 44.5 13.5t33.5 34.5
z" />
    <glyph glyph-name="r" unicode="r" horiz-adv-x="336" 
d="M318 518l-23 -96q-14 8 -29 12t-38 4q-20 0 -39 -8.5t-36 -32.5v-397h-96v525h96v-36q16 20 40 33.5t53 13.5q25 0 42.5 -5t29.5 -13z" />
    <glyph glyph-name="s" unicode="s" horiz-adv-x="389" 
d="M351 144q0 -75 -43 -115t-120 -40q-42 0 -84 15t-77 41l37 80q72 -45 122 -45q32 0 50.5 15.5t18.5 41.5q0 14 -5.5 25t-17.5 22t-31.5 23t-46.5 28q-24 14 -44.5 28.5t-34.5 32t-22 40.5t-8 54q0 69 39 107.5t111 38.5q40 0 77 -13t66 -36l-39 -81q-26 18 -53.5 28.5
t-52.5 10.5q-27 0 -39.5 -13t-12.5 -33q0 -12 3.5 -21.5t13 -19.5t26 -21.5t43.5 -26.5q30 -17 53 -33t38.5 -35t24 -42.5t8.5 -55.5z" />
    <glyph glyph-name="t" unicode="t" horiz-adv-x="319" 
d="M276 102l-11 -89q-17 -11 -38 -17.5t-48 -6.5q-53 0 -77 35t-24 99v312h-57v90h57v153l96 51v-204h101v-90h-101v-303q0 -28 10 -40t30 -12q19 0 35 6.5t27 15.5z" />
    <glyph glyph-name="u" unicode="u" horiz-adv-x="446" 
d="M389 0h-96v36q-16 -20 -42 -33.5t-60 -13.5q-76 0 -106.5 48.5t-30.5 148.5v339h96v-323q0 -66 14.5 -94t50.5 -28q23 0 43.5 12.5t34.5 35.5v397h96v-525z" />
    <glyph glyph-name="v" unicode="v" horiz-adv-x="416" 
d="M396 525l-131 -525h-111l-132 525h98l64 -283q3 -13 7 -31.5t8 -38t7 -36.5t5 -26q1 9 4.5 26.5t7.5 37t7.5 38.5t6.5 32l61 281h98z" />
    <glyph glyph-name="w" unicode="w" horiz-adv-x="597" 
d="M573 525l-108 -525h-90l-54 253q-3 12 -6.5 30.5l-7 37t-6.5 35.5t-4 26q-2 -9 -4.5 -26t-6 -36l-7 -38t-6.5 -32l-53 -250h-90l-106 525h92l39 -224q2 -12 5.5 -33.5t7 -45t6.5 -44.5t4 -30q1 10 5 31t8.5 45t8.5 46t7 33l48 222h87l50 -222q3 -11 7.5 -33t9 -46t8 -45
t5.5 -31q1 9 4 30t6.5 44.5t6.5 45.5t5 33l37 224h92z" />
    <glyph glyph-name="x" unicode="x" horiz-adv-x="441" 
d="M414 0h-109l-48 111q-4 9 -8.5 21t-9.5 25t-9.5 24.5t-7.5 19.5q-6 -16 -16.5 -42.5t-21.5 -50.5l-48 -108h-109l134 274l-123 251h108l38 -88q4 -9 9 -21t10 -25t9.5 -24.5t7.5 -19.5q5 16 15.5 43t21.5 50l37 85h109l-122 -251z" />
    <glyph glyph-name="y" unicode="y" horiz-adv-x="434" 
d="M412 525l-207 -710h-94l57 185l-146 525h102l61 -249q4 -15 8.5 -35.5l9 -41t8 -38.5t5.5 -28q2 10 6 28t8.5 39t9 41.5t8.5 35.5l62 248h102z" />
    <glyph glyph-name="z" unicode="z" horiz-adv-x="407" 
d="M361 0h-325v82l175 281q14 23 26.5 42.5t22.5 31.5q-7 0 -19 -0.5t-25 -0.5h-26h-23h-114v89h308v-81l-170 -282q-14 -23 -26.5 -42.5t-22.5 -31.5q7 0 19 0.5t25 0.5h26h23h126v-89z" />
    <glyph glyph-name="braceleft" unicode="{" horiz-adv-x="345" 
d="M309 -110q-61 0 -100 13.5t-61.5 40t-31.5 66t-9 91.5v68q0 53 -14 71t-36 18h-26v84h26q22 0 36 18t14 71v69q0 52 9 91.5t31.5 66t61.5 40t100 13.5v-70q-34 -4 -54.5 -13t-32 -25t-15 -38.5t-3.5 -53.5v-55q0 -35 -4 -61t-13.5 -44.5t-25 -30.5t-37.5 -20
q22 -8 37.5 -20t25 -30.5t13.5 -44.5t4 -61v-54q0 -31 3.5 -53.5t15 -38.5t32 -25t54.5 -13v-70z" />
    <glyph glyph-name="bar" unicode="|" horiz-adv-x="246" 
d="M168 -185h-90v985h90v-985z" />
    <glyph glyph-name="braceright" unicode="}" horiz-adv-x="345" 
d="M314 259h-26q-23 0 -36.5 -18t-13.5 -71v-69q0 -52 -9 -91.5t-31.5 -66t-61.5 -40t-100 -13.5v70q34 4 54.5 13t31.5 25t15 38.5t4 53.5v55q0 35 4 61t13.5 44.5t24.5 30.5t38 20q-23 8 -38 20t-24.5 30.5t-13.5 44.5t-4 61v54q0 31 -4 53.5t-15 38.5t-31.5 25t-54.5 13
v70q61 0 100 -13.5t61.5 -40t31.5 -66t9 -91.5v-68q0 -53 13.5 -71t36.5 -18h26v-84z" />
    <glyph glyph-name="asciitilde" unicode="~" horiz-adv-x="562" 
d="M520 424q-27 -69 -62 -105t-91 -36q-31 0 -51 8.5t-45 25.5q-32 22 -50.5 31t-32.5 9q-24 0 -38.5 -16.5t-35.5 -59.5l-72 37q27 69 62 105t91 36q31 0 51 -8.5t45 -25.5q58 -40 82 -40q12 0 21.5 3.5t17.5 12.5t16.5 23.5t19.5 36.5z" />
    <glyph glyph-name="Adieresis" unicode="&#xc4;" horiz-adv-x="494" 
d="M469 0h-107l-41 185h-152l-40 -185h-104l172 700h101zM301 278l-26 118q-4 17 -8.5 39.5t-8.5 44.5t-7.5 40.5t-5.5 28.5q-2 -10 -5.5 -28.5t-7.5 -40t-8.5 -44t-8.5 -40.5l-26 -118h112zM398 807q0 -25 -18.5 -43.5t-43.5 -18.5q-26 0 -44.5 18.5t-18.5 43.5
q0 26 18.5 44.5t44.5 18.5q25 0 43.5 -18.5t18.5 -44.5zM221 807q0 -25 -18.5 -43.5t-43.5 -18.5q-26 0 -44.5 18.5t-18.5 43.5q0 26 18.5 44.5t44.5 18.5q25 0 43.5 -18.5t18.5 -44.5z" />
    <glyph glyph-name="Aring" unicode="&#xc5;" horiz-adv-x="494" 
d="M469 0h-107l-41 185h-152l-40 -185h-104l158 643q-23 14 -36 38.5t-13 55.5q0 49 32 81t81 32t81 -32t32 -81q0 -30 -13 -54.5t-35 -38.5zM302 737q0 24 -16 40t-39 16t-39 -16t-16 -40t16 -40t39 -16t39 16t16 40zM301 278l-26 118q-4 17 -8.5 39.5t-8.5 44.5t-7.5 40.5
t-5.5 28.5q-2 -10 -5.5 -28.5t-7.5 -40t-8.5 -44t-8.5 -40.5l-26 -118h112z" />
    <glyph glyph-name="Ccedilla" unicode="&#xc7;" horiz-adv-x="480" 
d="M437 166q-8 -38 -21 -70t-34 -55t-50.5 -36.5t-69.5 -15.5l-7 -37q15 9 42 9q26 0 45 -17t19 -54q0 -43 -28 -63t-79 -20q-30 0 -53.5 7.5t-47.5 21.5l20 32q17 -9 36.5 -13t36.5 -4q25 0 37 9.5t12 26.5t-7.5 25t-18.5 8q-12 0 -19 -2.5t-18 -9.5l-32 13l15 71
q-47 9 -79 40.5t-52.5 79t-29.5 108.5t-9 129q0 76 12 142t37 115t64.5 77t95.5 28q44 0 75.5 -12.5t53 -35.5t34.5 -54.5t19 -68.5l-99 -25q-10 48 -27.5 72.5t-58.5 24.5q-32 0 -52.5 -23.5t-32 -61t-16 -84t-4.5 -92.5q0 -48 5.5 -95.5t18.5 -84.5t34.5 -60t53.5 -23
q35 0 54.5 25t33.5 82z" />
    <glyph glyph-name="Eacute" unicode="&#xc9;" horiz-adv-x="445" 
d="M412 0h-342v700h329v-95h-231v-187h151v-94h-151v-229h244v-95zM408 905l-145 -160h-82l92 160h135z" />
    <glyph glyph-name="Ntilde" unicode="&#xd1;" horiz-adv-x="532" 
d="M462 0h-80l-169 375q-5 11 -12 27.5t-14 33.5t-13.5 31.5t-9.5 22.5q0 -10 0.5 -28t1 -39t0.5 -40.5v-32.5v-350h-96v700h98l151 -333q5 -11 12 -27.5t14 -33.5t13.5 -32t9.5 -22q0 10 -0.5 28t-1 39t-0.5 40.5v32.5v308h96v-700zM436 868q0 -62 -26.5 -94t-67.5 -32
q-26 0 -48.5 9.5t-57.5 30.5q-20 12 -33 12q-15 0 -23.5 -10.5t-11.5 -36.5h-66q0 62 27.5 93t68.5 31q26 0 47.5 -9.5t56.5 -30.5q19 -12 35 -12q15 0 22.5 11.5t10.5 37.5h66z" />
    <glyph glyph-name="Odieresis" unicode="&#xd6;" horiz-adv-x="513" 
d="M468 351q0 -76 -12.5 -142t-38.5 -115t-66.5 -77t-95.5 -28q-56 0 -95.5 27.5t-65 76t-37.5 114.5t-12 142t12 142t38 115t65.5 77t95.5 28q55 0 95.5 -27.5t66 -76t38 -114.5t12.5 -142zM368 349q0 49 -6 96t-19.5 84.5t-35 60.5t-53.5 23t-53 -22.5t-33.5 -59.5
t-17.5 -84t-5 -96t5.5 -96t19 -84.5t35 -60.5t53.5 -23t53 22.5t34 59.5t18 84t5 96zM404 807q0 -25 -18.5 -43.5t-43.5 -18.5q-26 0 -44.5 18.5t-18.5 43.5q0 26 18.5 44.5t44.5 18.5q25 0 43.5 -18.5t18.5 -44.5zM227 807q0 -25 -18.5 -43.5t-43.5 -18.5q-26 0 -44.5 18.5
t-18.5 43.5q0 26 18.5 44.5t44.5 18.5q25 0 43.5 -18.5t18.5 -44.5z" />
    <glyph glyph-name="Udieresis" unicode="&#xdc;" horiz-adv-x="526" 
d="M459 208q0 -103 -52.5 -161t-143.5 -58q-44 0 -80 15.5t-61.5 43.5t-40 67t-14.5 87v498h98v-494q0 -22 5 -43t16.5 -37.5t30.5 -27t46 -10.5q29 0 48 10.5t30.5 27.5t16 38t4.5 41v495h97v-492zM414 807q0 -25 -18.5 -43.5t-43.5 -18.5q-26 0 -44.5 18.5t-18.5 43.5
q0 26 18.5 44.5t44.5 18.5q25 0 43.5 -18.5t18.5 -44.5zM237 807q0 -25 -18.5 -43.5t-43.5 -18.5q-26 0 -44.5 18.5t-18.5 43.5q0 26 18.5 44.5t44.5 18.5q25 0 43.5 -18.5t18.5 -44.5z" />
    <glyph glyph-name="aacute" unicode="&#xe1;" horiz-adv-x="434" 
d="M378 0h-96v36q-20 -23 -46.5 -35t-61.5 -12q-29 0 -55 11t-45.5 33t-31 55t-11.5 77q0 86 48 129t123 43q24 0 44 -4.5t36 -12.5v51q0 38 -15 56.5t-53 18.5q-25 0 -49 -7.5t-54 -25.5l-41 73q36 24 75.5 37t75.5 13q42 0 72 -8t49 -26.5t27.5 -48.5t8.5 -74v-379z
M282 125v105q-17 11 -34.5 15.5t-44.5 4.5q-34 0 -55 -20t-21 -63q0 -47 17.5 -69t48.5 -22q61 0 89 49zM395 755l-145 -160h-82l92 160h135z" />
    <glyph glyph-name="agrave" unicode="&#xe0;" horiz-adv-x="434" 
d="M378 0h-96v36q-20 -23 -46.5 -35t-61.5 -12q-29 0 -55 11t-45.5 33t-31 55t-11.5 77q0 86 48 129t123 43q24 0 44 -4.5t36 -12.5v51q0 38 -15 56.5t-53 18.5q-25 0 -49 -7.5t-54 -25.5l-41 73q36 24 75.5 37t75.5 13q42 0 72 -8t49 -26.5t27.5 -48.5t8.5 -74v-379z
M282 125v105q-17 11 -34.5 15.5t-44.5 4.5q-34 0 -55 -20t-21 -63q0 -47 17.5 -69t48.5 -22q61 0 89 49zM269 595h-82l-145 160h135z" />
    <glyph glyph-name="acircumflex" unicode="&#xe2;" horiz-adv-x="434" 
d="M378 0h-96v36q-20 -23 -46.5 -35t-61.5 -12q-29 0 -55 11t-45.5 33t-31 55t-11.5 77q0 86 48 129t123 43q24 0 44 -4.5t36 -12.5v51q0 38 -15 56.5t-53 18.5q-25 0 -49 -7.5t-54 -25.5l-41 73q36 24 75.5 37t75.5 13q42 0 72 -8t49 -26.5t27.5 -48.5t8.5 -74v-379z
M282 125v105q-17 11 -34.5 15.5t-44.5 4.5q-34 0 -55 -20t-21 -63q0 -47 17.5 -69t48.5 -22q61 0 89 49zM372 591h-78l-77 88l-77 -88h-76l102 160h104z" />
    <glyph glyph-name="adieresis" unicode="&#xe4;" horiz-adv-x="434" 
d="M378 0h-96v36q-20 -23 -46.5 -35t-61.5 -12q-29 0 -55 11t-45.5 33t-31 55t-11.5 77q0 86 48 129t123 43q24 0 44 -4.5t36 -12.5v51q0 38 -15 56.5t-53 18.5q-25 0 -49 -7.5t-54 -25.5l-41 73q36 24 75.5 37t75.5 13q42 0 72 -8t49 -26.5t27.5 -48.5t8.5 -74v-379z
M282 125v105q-17 11 -34.5 15.5t-44.5 4.5q-34 0 -55 -20t-21 -63q0 -47 17.5 -69t48.5 -22q61 0 89 49zM369 653q0 -25 -18.5 -43.5t-43.5 -18.5q-26 0 -44.5 18.5t-18.5 43.5q0 26 18.5 44.5t44.5 18.5q25 0 43.5 -18.5t18.5 -44.5zM192 653q0 -25 -18.5 -43.5
t-43.5 -18.5q-26 0 -44.5 18.5t-18.5 43.5q0 26 18.5 44.5t44.5 18.5q25 0 43.5 -18.5t18.5 -44.5z" />
    <glyph glyph-name="atilde" unicode="&#xe3;" horiz-adv-x="434" 
d="M378 0h-96v36q-20 -23 -46.5 -35t-61.5 -12q-29 0 -55 11t-45.5 33t-31 55t-11.5 77q0 86 48 129t123 43q24 0 44 -4.5t36 -12.5v51q0 38 -15 56.5t-53 18.5q-25 0 -49 -7.5t-54 -25.5l-41 73q36 24 75.5 37t75.5 13q42 0 72 -8t49 -26.5t27.5 -48.5t8.5 -74v-379z
M282 125v105q-17 11 -34.5 15.5t-44.5 4.5q-34 0 -55 -20t-21 -63q0 -47 17.5 -69t48.5 -22q61 0 89 49zM388 716q0 -62 -26.5 -94t-67.5 -32q-26 0 -48.5 9.5t-57.5 30.5q-20 12 -33 12q-15 0 -23.5 -10.5t-11.5 -36.5h-66q0 62 27.5 93t68.5 31q26 0 47.5 -9.5t56.5 -30.5
q19 -12 35 -12q15 0 22.5 11.5t10.5 37.5h66z" />
    <glyph glyph-name="aring" unicode="&#xe5;" horiz-adv-x="434" 
d="M378 0h-96v36q-20 -23 -46.5 -35t-61.5 -12q-29 0 -55 11t-45.5 33t-31 55t-11.5 77q0 86 48 129t123 43q24 0 44 -4.5t36 -12.5v51q0 38 -15 56.5t-53 18.5q-25 0 -49 -7.5t-54 -25.5l-41 73q36 24 75.5 37t75.5 13q42 0 72 -8t49 -26.5t27.5 -48.5t8.5 -74v-379z
M282 125v105q-17 11 -34.5 15.5t-44.5 4.5q-34 0 -55 -20t-21 -63q0 -47 17.5 -69t48.5 -22q61 0 89 49zM331 707q0 -49 -32 -80.5t-81 -31.5t-81 31.5t-32 80.5t32 81t81 32t81 -32t32 -81zM273 707q0 24 -16 40t-39 16t-39 -16t-16 -40t16 -40t39 -16t39 16t16 40z" />
    <glyph glyph-name="ccedilla" unicode="&#xe7;" horiz-adv-x="410" 
d="M375 82q-26 -40 -59 -65.5t-87 -27.5l-7 -37q15 9 42 9q26 0 45 -17t19 -54q0 -43 -28 -63t-79 -20q-30 0 -53.5 7.5t-47.5 21.5l20 32q17 -9 36.5 -13t36.5 -4q25 0 37 9.5t12 26.5t-7.5 25t-18.5 8q-12 0 -19 -2.5t-18 -9.5l-32 13l15 72q-66 15 -104.5 80.5
t-38.5 186.5q0 139 49.5 207.5t137.5 68.5q28 0 50.5 -7t40.5 -19.5t32 -29.5t25 -36l-69 -60q-20 32 -38 46t-44 14q-46 0 -66.5 -47.5t-20.5 -134.5q0 -84 21 -132.5t69 -48.5q24 0 42 13.5t38 44.5z" />
    <glyph glyph-name="eacute" unicode="&#xe9;" horiz-adv-x="450" 
d="M411 264v-16.5t-1 -17.5h-275q5 -78 31 -113.5t68 -35.5q33 0 52.5 9t42.5 30l59 -61q-27 -30 -66 -50t-90 -20q-47 0 -83 19t-60.5 54.5t-37 85.5t-12.5 112q0 69 13.5 120.5t38.5 86t59 52t76 17.5q39 0 73 -17t59 -50.5t39 -84.5t14 -120zM313 313q-2 59 -25 96
t-64 37q-76 0 -88 -133h177zM402 755l-145 -160h-82l92 160h135z" />
    <glyph glyph-name="egrave" unicode="&#xe8;" horiz-adv-x="450" 
d="M411 264v-16.5t-1 -17.5h-275q5 -78 31 -113.5t68 -35.5q33 0 52.5 9t42.5 30l59 -61q-27 -30 -66 -50t-90 -20q-47 0 -83 19t-60.5 54.5t-37 85.5t-12.5 112q0 69 13.5 120.5t38.5 86t59 52t76 17.5q39 0 73 -17t59 -50.5t39 -84.5t14 -120zM313 313q-2 59 -25 96
t-64 37q-76 0 -88 -133h177zM276 595h-82l-145 160h135z" />
    <glyph glyph-name="ecircumflex" unicode="&#xea;" horiz-adv-x="450" 
d="M411 264v-16.5t-1 -17.5h-275q5 -78 31 -113.5t68 -35.5q33 0 52.5 9t42.5 30l59 -61q-27 -30 -66 -50t-90 -20q-47 0 -83 19t-60.5 54.5t-37 85.5t-12.5 112q0 69 13.5 120.5t38.5 86t59 52t76 17.5q39 0 73 -17t59 -50.5t39 -84.5t14 -120zM313 313q-2 59 -25 96
t-64 37q-76 0 -88 -133h177zM379 586h-78l-77 88l-77 -88h-76l102 160h104z" />
    <glyph glyph-name="edieresis" unicode="&#xeb;" horiz-adv-x="450" 
d="M411 264v-16.5t-1 -17.5h-275q5 -78 31 -113.5t68 -35.5q33 0 52.5 9t42.5 30l59 -61q-27 -30 -66 -50t-90 -20q-47 0 -83 19t-60.5 54.5t-37 85.5t-12.5 112q0 69 13.5 120.5t38.5 86t59 52t76 17.5q39 0 73 -17t59 -50.5t39 -84.5t14 -120zM313 313q-2 59 -25 96
t-64 37q-76 0 -88 -133h177zM376 653q0 -25 -18.5 -43.5t-43.5 -18.5q-26 0 -44.5 18.5t-18.5 43.5q0 26 18.5 44.5t44.5 18.5q25 0 43.5 -18.5t18.5 -44.5zM199 653q0 -25 -18.5 -43.5t-43.5 -18.5q-26 0 -44.5 18.5t-18.5 43.5q0 26 18.5 44.5t44.5 18.5q25 0 43.5 -18.5
t18.5 -44.5z" />
    <glyph glyph-name="iacute" unicode="&#xed;" horiz-adv-x="220" 
d="M158 0h-96v525h96v-525zM293 755l-145 -160h-82l92 160h135z" />
    <glyph glyph-name="igrave" unicode="&#xec;" horiz-adv-x="220" 
d="M158 0h-96v525h96v-525zM156 595h-82l-145 160h135z" />
    <glyph glyph-name="icircumflex" unicode="&#xee;" horiz-adv-x="220" 
d="M158 0h-96v525h96v-525zM265 581h-78l-77 88l-77 -88h-76l102 160h104z" />
    <glyph glyph-name="idieresis" unicode="&#xef;" horiz-adv-x="220" 
d="M158 0h-96v525h96v-525zM262 657q0 -25 -18.5 -43.5t-43.5 -18.5q-26 0 -44.5 18.5t-18.5 43.5q0 26 18.5 44.5t44.5 18.5q25 0 43.5 -18.5t18.5 -44.5zM85 657q0 -25 -18.5 -43.5t-43.5 -18.5q-26 0 -44.5 18.5t-18.5 43.5q0 26 18.5 44.5t44.5 18.5q25 0 43.5 -18.5
t18.5 -44.5z" />
    <glyph glyph-name="ntilde" unicode="&#xf1;" horiz-adv-x="446" 
d="M392 0h-96v323q0 66 -14.5 94t-50.5 28q-23 0 -43.5 -12.5t-34.5 -35.5v-397h-96v525h96v-36q16 20 42 33.5t60 13.5q76 0 106.5 -48.5t30.5 -148.5v-339zM391 716q0 -62 -26.5 -94t-67.5 -32q-26 0 -48.5 9.5t-57.5 30.5q-20 12 -33 12q-15 0 -23.5 -10.5t-11.5 -36.5
h-66q0 62 27.5 93t68.5 31q26 0 47.5 -9.5t56.5 -30.5q19 -12 35 -12q15 0 22.5 11.5t10.5 37.5h66z" />
    <glyph glyph-name="oacute" unicode="&#xf3;" horiz-adv-x="456" 
d="M417 264q0 -138 -52.5 -206.5t-139.5 -68.5q-41 0 -75 16.5t-59 50t-38.5 84.5t-13.5 120q0 139 51 207.5t139 68.5q42 0 76.5 -17t59 -50.5t38.5 -84.5t14 -120zM320 262q0 90 -24 136t-69 46q-91 0 -91 -182q0 -181 92 -181q45 0 68.5 49.5t23.5 131.5zM403 755
l-145 -160h-82l92 160h135z" />
    <glyph glyph-name="ograve" unicode="&#xf2;" horiz-adv-x="456" 
d="M417 264q0 -138 -52.5 -206.5t-139.5 -68.5q-41 0 -75 16.5t-59 50t-38.5 84.5t-13.5 120q0 139 51 207.5t139 68.5q42 0 76.5 -17t59 -50.5t38.5 -84.5t14 -120zM320 262q0 90 -24 136t-69 46q-91 0 -91 -182q0 -181 92 -181q45 0 68.5 49.5t23.5 131.5zM277 595h-82
l-145 160h135z" />
    <glyph glyph-name="ocircumflex" unicode="&#xf4;" horiz-adv-x="456" 
d="M417 264q0 -138 -52.5 -206.5t-139.5 -68.5q-41 0 -75 16.5t-59 50t-38.5 84.5t-13.5 120q0 139 51 207.5t139 68.5q42 0 76.5 -17t59 -50.5t38.5 -84.5t14 -120zM320 262q0 90 -24 136t-69 46q-91 0 -91 -182q0 -181 92 -181q45 0 68.5 49.5t23.5 131.5zM380 586h-78
l-77 88l-77 -88h-76l102 160h104z" />
    <glyph glyph-name="odieresis" unicode="&#xf6;" horiz-adv-x="456" 
d="M417 264q0 -138 -52.5 -206.5t-139.5 -68.5q-41 0 -75 16.5t-59 50t-38.5 84.5t-13.5 120q0 139 51 207.5t139 68.5q42 0 76.5 -17t59 -50.5t38.5 -84.5t14 -120zM320 262q0 90 -24 136t-69 46q-91 0 -91 -182q0 -181 92 -181q45 0 68.5 49.5t23.5 131.5zM377 648
q0 -25 -18.5 -43.5t-43.5 -18.5q-26 0 -44.5 18.5t-18.5 43.5q0 26 18.5 44.5t44.5 18.5q25 0 43.5 -18.5t18.5 -44.5zM200 648q0 -25 -18.5 -43.5t-43.5 -18.5q-26 0 -44.5 18.5t-18.5 43.5q0 26 18.5 44.5t44.5 18.5q25 0 43.5 -18.5t18.5 -44.5z" />
    <glyph glyph-name="otilde" unicode="&#xf5;" horiz-adv-x="456" 
d="M417 264q0 -138 -52.5 -206.5t-139.5 -68.5q-41 0 -75 16.5t-59 50t-38.5 84.5t-13.5 120q0 139 51 207.5t139 68.5q42 0 76.5 -17t59 -50.5t38.5 -84.5t14 -120zM320 262q0 90 -24 136t-69 46q-91 0 -91 -182q0 -181 92 -181q45 0 68.5 49.5t23.5 131.5zM396 716
q0 -62 -26.5 -94t-67.5 -32q-26 0 -48.5 9.5t-57.5 30.5q-20 12 -33 12q-15 0 -23.5 -10.5t-11.5 -36.5h-66q0 62 27.5 93t68.5 31q26 0 47.5 -9.5t56.5 -30.5q19 -12 35 -12q15 0 22.5 11.5t10.5 37.5h66z" />
    <glyph glyph-name="uacute" unicode="&#xfa;" horiz-adv-x="446" 
d="M389 0h-96v36q-16 -20 -42 -33.5t-60 -13.5q-76 0 -106.5 48.5t-30.5 148.5v339h96v-323q0 -66 14.5 -94t50.5 -28q23 0 43.5 12.5t34.5 35.5v397h96v-525zM396 755l-145 -160h-82l92 160h135z" />
    <glyph glyph-name="ugrave" unicode="&#xf9;" horiz-adv-x="446" 
d="M389 0h-96v36q-16 -20 -42 -33.5t-60 -13.5q-76 0 -106.5 48.5t-30.5 148.5v339h96v-323q0 -66 14.5 -94t50.5 -28q23 0 43.5 12.5t34.5 35.5v397h96v-525zM270 595h-82l-145 160h135z" />
    <glyph glyph-name="ucircumflex" unicode="&#xfb;" horiz-adv-x="446" 
d="M389 0h-96v36q-16 -20 -42 -33.5t-60 -13.5q-76 0 -106.5 48.5t-30.5 148.5v339h96v-323q0 -66 14.5 -94t50.5 -28q23 0 43.5 12.5t34.5 35.5v397h96v-525zM373 595h-78l-77 88l-77 -88h-76l102 160h104z" />
    <glyph glyph-name="udieresis" unicode="&#xfc;" horiz-adv-x="446" 
d="M389 0h-96v36q-16 -20 -42 -33.5t-60 -13.5q-76 0 -106.5 48.5t-30.5 148.5v339h96v-323q0 -66 14.5 -94t50.5 -28q23 0 43.5 12.5t34.5 35.5v397h96v-525zM370 657q0 -25 -18.5 -43.5t-43.5 -18.5q-26 0 -44.5 18.5t-18.5 43.5q0 26 18.5 44.5t44.5 18.5
q25 0 43.5 -18.5t18.5 -44.5zM193 657q0 -25 -18.5 -43.5t-43.5 -18.5q-26 0 -44.5 18.5t-18.5 43.5q0 26 18.5 44.5t44.5 18.5q25 0 43.5 -18.5t18.5 -44.5z" />
    <glyph glyph-name="dagger" unicode="&#x2020;" horiz-adv-x="442" 
d="M410 384h-141v-484h-96v484h-141v90h141v226h96v-226h141v-90z" />
    <glyph glyph-name="degree" unicode="&#xb0;" horiz-adv-x="400" 
d="M368 544q0 -36 -13 -67t-35.5 -53.5t-53 -35.5t-66.5 -13q-35 0 -66 13t-53.5 35.5t-35.5 53.5t-13 67q0 35 13 65.5t35.5 53t53.5 35.5t66 13q36 0 66.5 -13t53 -35.5t35.5 -53t13 -65.5zM289 544q0 18 -7 34t-19 28.5t-28 19.5t-35 7q-18 0 -34.5 -7t-28.5 -19.5
t-19 -28.5t-7 -34q0 -19 7 -35.5t19 -29t28.5 -19.5t34.5 -7q19 0 35 7t28 19.5t19 29t7 35.5z" />
    <glyph glyph-name="cent" unicode="&#xa2;" horiz-adv-x="410" 
d="M375 176q-20 -32 -46.5 -55t-61.5 -33v-99h-99v102q-60 19 -94.5 83.5t-34.5 179.5q0 114 33.5 180.5t95.5 86.5v90h99v-86q38 -8 63.5 -32t43.5 -55l-68 -59q-19 31 -38 46.5t-45 15.5q-46 0 -66.5 -49t-20.5 -136q0 -83 21.5 -133.5t68.5 -50.5q24 0 42.5 15.5
t37.5 45.5z" />
    <glyph glyph-name="sterling" unicode="&#xa3;" horiz-adv-x="469" 
d="M446 636l-60 -73q-18 15 -32 24.5t-27.5 15.5t-28.5 8t-34 2q-37 0 -58 -22t-21 -58q0 -26 7 -51t17 -48q8 -17 13.5 -32t9.5 -32h114v-87h-109q-2 -30 -7 -55t-14 -48t-21.5 -45t-29.5 -46h267v-89h-372v102q23 25 38.5 46.5t25 42.5t14 43.5t5.5 48.5h-83v87h73
q-10 26 -21 50q-11 23 -19 53t-8 61q0 82 47.5 129.5t133.5 47.5q30 0 54 -4.5t45 -13.5t40.5 -23t40.5 -34z" />
    <glyph glyph-name="section" unicode="&#xa7;" horiz-adv-x="507" 
d="M462 261q0 -57 -27.5 -92.5t-65.5 -57.5q26 -23 38.5 -49.5t12.5 -62.5q0 -73 -45 -118t-131 -45q-51 0 -89 14.5t-76 42.5l53 76q30 -22 57 -31t58 -9q32 0 50.5 16t18.5 48q0 13 -5 24.5t-17 22.5t-32.5 23.5t-51.5 27.5q-43 21 -74 40t-51.5 41t-30 49.5t-9.5 64.5
q0 28 7.5 51t20 41t29.5 32.5t36 25.5q-26 23 -38.5 49.5t-12.5 62.5q0 73 45 118t131 45q51 0 89 -14.5t76 -42.5l-53 -76q-30 22 -57 31t-58 9q-32 0 -50.5 -16t-18.5 -48q0 -14 5 -25t17 -22t32.5 -23.5t51.5 -27.5q43 -21 74 -40t51 -41t30 -49.5t10 -64.5zM359 252
q0 19 -5 34t-17.5 28t-34 26t-53.5 29q-8 5 -16 8.5t-16 7.5q-32 -15 -50.5 -36.5t-18.5 -53.5q0 -20 5 -34.5t17.5 -27.5t34 -26t53.5 -29q8 -5 16 -8.5t16 -7.5q32 15 50.5 36.5t18.5 53.5z" />
    <glyph glyph-name="bullet" unicode="&#x2022;" horiz-adv-x="400" 
d="M350 366q0 -32 -11.5 -59t-32 -47.5t-48 -32t-58.5 -11.5q-32 0 -59 11.5t-47.5 32t-32 47.5t-11.5 59q0 31 11.5 59t32 48.5t47.5 32.5t59 12q31 0 58.5 -12t48 -32.5t32 -48.5t11.5 -59z" />
    <glyph glyph-name="paragraph" unicode="&#xb6;" horiz-adv-x="607" 
d="M542 -185h-95v789h-79v-789h-95v470h-35q-35 0 -70 11.5t-63 36t-45.5 63.5t-17.5 93q0 53 16.5 92.5t44.5 66t64.5 39.5t76.5 13h298v-885z" />
    <glyph glyph-name="germandbls" unicode="&#xdf;" horiz-adv-x="463" 
d="M421 218q0 -105 -46 -161.5t-153 -56.5h-11v88h12q53 0 77 32t24 95q0 70 -24.5 103.5t-78.5 33.5h-10v87h9q42 0 61 28t19 71q0 48 -17 73.5t-58 25.5t-56.5 -23.5t-15.5 -71.5v-683l-96 -52v724q0 103 40 149t130 46q83 0 126.5 -47t43.5 -133q0 -58 -19.5 -91.5
t-51.5 -52.5q44 -17 69.5 -59.5t25.5 -124.5z" />
    <glyph glyph-name="registered" unicode="&#xae;" horiz-adv-x="412" 
d="M367 499q0 -48 -12 -86.5t-33.5 -65.5t-51 -42t-64.5 -15t-64.5 15t-51 42t-33.5 65.5t-12 86.5t12 86.5t33.5 65.5t51 42t64.5 15t64.5 -15t51 -42t33.5 -65.5t12 -86.5zM326 498q0 77 -32 123t-88 46t-88 -45.5t-32 -121.5q0 -77 32.5 -123t88.5 -46t87.5 45.5
t31.5 121.5zM280 553q0 -23 -10 -41t-28 -26l37 -100h-47l-31 91h-17v-91h-43v234h72q26 0 46.5 -16t20.5 -51zM235 550q0 17 -8.5 22.5t-22.5 5.5h-20v-58h19q15 0 23.5 6.5t8.5 23.5z" />
    <glyph glyph-name="copyright" unicode="&#xa9;" horiz-adv-x="412" 
d="M367 499q0 -48 -12 -86.5t-33.5 -65.5t-51 -42t-64.5 -15t-64.5 15t-51 42t-33.5 65.5t-12 86.5t12 86.5t33.5 65.5t51 42t64.5 15t64.5 -15t51 -42t33.5 -65.5t12 -86.5zM326 498q0 77 -32 123t-88 46t-88 -45.5t-32 -121.5q0 -77 32.5 -123.5t88.5 -46.5t87.5 46
t31.5 122zM272 444q-6 -29 -21 -47.5t-45 -18.5q-20 0 -33.5 9.5t-22 26t-12 39t-3.5 47.5q0 52 16.5 87t55.5 35q31 0 45.5 -17.5t19.5 -45.5l-42 -10q-2 16 -7.5 24t-16.5 8q-9 0 -14.5 -7.5t-9 -19t-4.5 -25.5t-1 -28q0 -15 1.5 -29.5t5 -26t9.5 -19t15 -7.5q19 0 25 37z
" />
    <glyph glyph-name="trademark" unicode="&#x2122;" horiz-adv-x="575" 
d="M220 643h-71v-336h-57v336h-73v57h201v-57zM539 307h-56v159q0 17 0.5 44.5t0.5 44.5q-2 -8 -5.5 -20t-7.5 -25l-8 -26t-7 -22l-51 -164l-51 164q-3 9 -6.5 20.5t-7 24t-7 24t-6.5 20.5v-20t0.5 -23t0.5 -23v-19v-159h-55v393h59l51 -164q5 -16 13 -40t11 -42
q3 19 10 43.5t12 40.5l51 162h59v-393z" />
    <glyph glyph-name="acute" unicode="&#xb4;" horiz-adv-x="400" 
d="M330 755l-145 -160h-82l92 160h135z" />
    <glyph glyph-name="dieresis" unicode="&#xa8;" horiz-adv-x="400" 
d="M351 657q0 -25 -18.5 -43.5t-43.5 -18.5q-26 0 -44.5 18.5t-18.5 43.5q0 26 18.5 44.5t44.5 18.5q25 0 43.5 -18.5t18.5 -44.5zM174 657q0 -25 -18.5 -43.5t-43.5 -18.5q-26 0 -44.5 18.5t-18.5 43.5q0 26 18.5 44.5t44.5 18.5q25 0 43.5 -18.5t18.5 -44.5z" />
    <glyph glyph-name="notequal" unicode="&#x2260;" 
d="M730 346l-179 -125q-9 -5 -16 -2q-5 5 -6.5 8.5t0.5 11.5l19 61h-127v-137l63 20q10 4 18 -6q4 -8 -3 -17l-124 -178l-126 178q-5 10 -2 17q9 11 20 6l62 -20v137h-127l19 -61q2 -8 0 -11.5t-7 -8.5q-7 -3 -17 2l-177 125l179 125q9 6 15 3q10 -8 7 -19l-19 -63h127v134
l-62 -19q-7 -3 -11 -0.5t-9 7.5q-3 6 2 17l126 177l124 -178q6 -9 3 -16q-8 -9 -18 -7l-63 19v-134h127l-19 63q-3 11 6 19q7 3 16 -3z" />
    <glyph glyph-name="AE" unicode="&#xc6;" horiz-adv-x="667" 
d="M634 0h-327v165h-137l-54 -165h-99l242 700h362v-95h-221v-187h141v-94h-141v-229h234v-95zM309 597q-3 -12 -8.5 -30t-11.5 -37t-12 -37t-10 -31l-67 -204h107v213v28t0.5 33.5t1 34.5t0.5 30z" />
    <glyph glyph-name="Oslash" unicode="&#xd8;" horiz-adv-x="513" 
d="M468 351q0 -76 -12.5 -142t-38.5 -115t-66.5 -77t-95.5 -28q-40 0 -75 16l-18 -55h-86l38 111q-36 50 -52.5 124t-16.5 164q0 76 12 142t38 115t65.5 77t95.5 28q42 0 74 -16l19 55h86l-38 -111q37 -49 54 -123t17 -165zM299 602q-20 14 -45 14q-32 0 -53.5 -23
t-34.5 -60.5t-18 -85t-5 -96.5q0 -45 4 -85.5t13 -74.5zM370 349q0 45 -4 86t-14 76l-140 -412q19 -15 46 -15q32 0 53.5 23t34.5 60.5t18.5 85t5.5 96.5z" />
    <glyph glyph-name="infinity" unicode="&#x221e;" 
d="M730 346l-179 -125q-9 -5 -16 -2q-5 5 -6.5 8.5t0.5 11.5l19 61h-127v-137l63 20q10 4 18 -6q4 -8 -3 -17l-124 -178l-126 178q-5 10 -2 17q9 11 20 6l62 -20v137h-127l19 -61q2 -8 0 -11.5t-7 -8.5q-7 -3 -17 2l-177 125l179 125q9 6 15 3q10 -8 7 -19l-19 -63h127v134
l-62 -19q-7 -3 -11 -0.5t-9 7.5q-3 6 2 17l126 177l124 -178q6 -9 3 -16q-8 -9 -18 -7l-63 19v-134h127l-19 63q-3 11 6 19q7 3 16 -3z" />
    <glyph glyph-name="plusminus" unicode="&#xb1;" 
d="M730 346l-179 -125q-9 -5 -16 -2q-5 5 -6.5 8.5t0.5 11.5l19 61h-127v-137l63 20q10 4 18 -6q4 -8 -3 -17l-124 -178l-126 178q-5 10 -2 17q9 11 20 6l62 -20v137h-127l19 -61q2 -8 0 -11.5t-7 -8.5q-7 -3 -17 2l-177 125l179 125q9 6 15 3q10 -8 7 -19l-19 -63h127v134
l-62 -19q-7 -3 -11 -0.5t-9 7.5q-3 6 2 17l126 177l124 -178q6 -9 3 -16q-8 -9 -18 -7l-63 19v-134h127l-19 63q-3 11 6 19q7 3 16 -3z" />
    <glyph glyph-name="lessequal" unicode="&#x2264;" 
d="M730 346l-179 -125q-9 -5 -16 -2q-5 5 -6.5 8.5t0.5 11.5l19 61h-127v-137l63 20q10 4 18 -6q4 -8 -3 -17l-124 -178l-126 178q-5 10 -2 17q9 11 20 6l62 -20v137h-127l19 -61q2 -8 0 -11.5t-7 -8.5q-7 -3 -17 2l-177 125l179 125q9 6 15 3q10 -8 7 -19l-19 -63h127v134
l-62 -19q-7 -3 -11 -0.5t-9 7.5q-3 6 2 17l126 177l124 -178q6 -9 3 -16q-8 -9 -18 -7l-63 19v-134h127l-19 63q-3 11 6 19q7 3 16 -3z" />
    <glyph glyph-name="greaterequal" unicode="&#x2265;" 
d="M730 346l-179 -125q-9 -5 -16 -2q-5 5 -6.5 8.5t0.5 11.5l19 61h-127v-137l63 20q10 4 18 -6q4 -8 -3 -17l-124 -178l-126 178q-5 10 -2 17q9 11 20 6l62 -20v137h-127l19 -61q2 -8 0 -11.5t-7 -8.5q-7 -3 -17 2l-177 125l179 125q9 6 15 3q10 -8 7 -19l-19 -63h127v134
l-62 -19q-7 -3 -11 -0.5t-9 7.5q-3 6 2 17l126 177l124 -178q6 -9 3 -16q-8 -9 -18 -7l-63 19v-134h127l-19 63q-3 11 6 19q7 3 16 -3z" />
    <glyph glyph-name="yen" unicode="&#xa5;" horiz-adv-x="463" 
d="M441 700l-160 -402v-88h102v-89h-102v-121h-94v121h-102v89h102v85l-165 405h110l52 -146q6 -18 13.5 -39.5l15 -43t13.5 -41t9 -32.5q3 13 9 32.5t13 41t14.5 43.5t13.5 40l50 145h106z" />
    <glyph glyph-name="mu" unicode="&#xb5;" horiz-adv-x="700" 
d="M680 346l-179 -126q-12 -6 -19 -2q-6 5 -8.5 10t0.5 13l18 57h-284l18 -57q3 -8 0.5 -13t-8.5 -10q-8 -4 -19 2l-179 126l179 125q11 7 19 3q12 -9 8 -22l-18 -58h284l-18 58q-4 13 8 22q8 4 19 -3z" />
    <glyph glyph-name="partialdiff" unicode="&#x2202;" horiz-adv-x="356" 
d="M306 185q4 -8 -3 -19l-125 -179l-126 179q-6 11 -2 19q5 6 10 8.5t13 -0.5l57 -18v350l-57 -18q-8 -3 -13 -0.5t-10 8.5q-4 7 2 19l126 179l125 -179q7 -11 3 -19q-9 -12 -22 -8l-58 18v-350l58 18q13 4 22 -8z" />
    <glyph glyph-name="summation" unicode="&#x2211;" 
d="M730 346l-179 -125q-9 -5 -16 -2q-5 5 -6.5 8.5t0.5 11.5l19 61h-127v-137l63 20q10 4 18 -6q4 -8 -3 -17l-124 -178l-126 178q-5 10 -2 17q9 11 20 6l62 -20v137h-127l19 -61q2 -8 0 -11.5t-7 -8.5q-7 -3 -17 2l-177 125l179 125q9 6 15 3q10 -8 7 -19l-19 -63h127v134
l-62 -19q-7 -3 -11 -0.5t-9 7.5q-3 6 2 17l126 177l124 -178q6 -9 3 -16q-8 -9 -18 -7l-63 19v-134h127l-19 63q-3 11 6 19q7 3 16 -3z" />
    <glyph glyph-name="product" unicode="&#x220f;" 
d="M730 346l-179 -125q-9 -5 -16 -2q-5 5 -6.5 8.5t0.5 11.5l19 61h-127v-137l63 20q10 4 18 -6q4 -8 -3 -17l-124 -178l-126 178q-5 10 -2 17q9 11 20 6l62 -20v137h-127l19 -61q2 -8 0 -11.5t-7 -8.5q-7 -3 -17 2l-177 125l179 125q9 6 15 3q10 -8 7 -19l-19 -63h127v134
l-62 -19q-7 -3 -11 -0.5t-9 7.5q-3 6 2 17l126 177l124 -178q6 -9 3 -16q-8 -9 -18 -7l-63 19v-134h127l-19 63q-3 11 6 19q7 3 16 -3z" />
    <glyph glyph-name="pi" unicode="&#x3c0;" horiz-adv-x="646" 
d="M601 350q0 -82 -21 -148.5t-58 -114t-88 -73t-111 -25.5t-111 25.5t-88 73t-58 114t-21 148.5t21 148.5t58 114t88 73t111 25.5t111 -25.5t88 -73t58 -114t21 -148.5zM543 349q0 69 -15.5 125.5t-44 97t-69 62.5t-91.5 22t-91.5 -22t-69 -62t-44 -96t-15.5 -125
t15.5 -125.5t44.5 -97t70 -62.5t92 -22t91 22t68.5 62t43.5 96t15 125zM452 432q0 -30 -9.5 -52.5t-25.5 -37.5t-37 -22.5t-43 -7.5h-50v-159h-58v394h111q20 0 40 -6.5t36 -20.5t26 -35.5t10 -52.5zM392 430q0 33 -17 47t-38 14h-50v-123h50q23 0 39 15.5t16 46.5z" />
    <glyph glyph-name="integral" unicode="&#x222b;" horiz-adv-x="448" 
d="M391 0h-96v35q-19 -20 -41 -33t-57 -13q-36 0 -65 14t-49.5 47t-32 86.5t-11.5 131.5q0 132 43.5 200t121.5 68q53 0 91 -39v28h96v-525zM295 127v272q-16 24 -38 35.5t-45 11.5q-38 0 -57 -40t-19 -133q0 -103 19.5 -148.5t61.5 -45.5q24 0 44.5 13.5t33.5 34.5z" />
    <glyph glyph-name="ordfeminine" unicode="&#xaa;" horiz-adv-x="378" 
d="M323 277h-78v29q-32 -38 -87 -38q-23 0 -44 9t-37 26.5t-25.5 44t-9.5 62.5q0 70 39 105t100 35q20 0 35.5 -4t28.5 -10v41q0 31 -11.5 46t-43.5 15q-20 0 -39.5 -6t-43.5 -21l-33 59q29 20 60 30.5t60 10.5q71 0 100 -28t29 -99v-307zM245 378v85q-14 8 -27.5 12
t-36.5 4q-27 0 -44 -16t-17 -51q0 -38 14 -56t39 -18q50 0 72 40z" />
    <glyph glyph-name="ordmasculine" unicode="&#xba;" horiz-adv-x="384" 
d="M345 491q0 -112 -42.5 -167.5t-113.5 -55.5q-66 0 -108 53.5t-42 165.5t41 168t113 56q34 0 62 -13.5t48 -41t31 -69t11 -96.5zM266 489q0 72 -19 109.5t-56 37.5q-74 0 -74 -147t75 -147q36 0 55 40.5t19 106.5z" />
    <glyph glyph-name="Omega" unicode="&#x2126;" horiz-adv-x="356" 
d="M306 515q-9 -12 -22 -8l-58 18v-525h-96v525l-57 -18q-8 -3 -13 -0.5t-10 8.5q-4 7 2 19l126 179l125 -179q7 -11 3 -19z" />
    <glyph glyph-name="ae" unicode="&#xe6;" horiz-adv-x="685" 
d="M646 264v-16.5t-1 -17.5h-275q5 -78 31 -113.5t68 -35.5q33 0 52.5 9t42.5 30l59 -61q-27 -30 -66 -50t-90 -20t-82 19.5t-53 56.5q-32 -36 -68 -56t-90 -20q-29 0 -55 11t-45.5 33t-31 55t-11.5 77q0 86 48 129t123 43q24 0 44 -4.5t36 -12.5v51q0 38 -15 56.5t-53 18.5
q-25 0 -49 -7.5t-54 -25.5l-41 73q36 24 74.5 37t73.5 13q29 0 49 -4t34.5 -11.5t24 -19.5t18.5 -27q17 25 46 43.5t71 18.5q39 0 73 -17t59 -50.5t39 -84.5t14 -120zM548 313q-2 59 -25 96t-64 37q-76 0 -88 -133h177zM282 125v105q-17 11 -34.5 15.5t-44.5 4.5
q-34 0 -55 -20t-21 -63q0 -47 17.5 -69t48.5 -22q61 0 89 49z" />
    <glyph glyph-name="oslash" unicode="&#xf8;" horiz-adv-x="456" 
d="M417 264q0 -138 -52.5 -206.5t-139.5 -68.5q-28 0 -55 8l-17 -47h-82l33 89q-31 34 -48 88.5t-17 132.5q0 139 51 207.5t139 68.5q28 0 55 -8l17 47h82l-33 -89q32 -33 49.5 -88.5t17.5 -133.5zM253 444q-11 4 -26 4q-46 0 -70.5 -47t-24.5 -139q0 -70 13 -112zM324 262
q0 70 -14 114l-109 -295q12 -4 27 -4q46 0 71 50.5t25 134.5z" />
    <glyph glyph-name="questiondown" unicode="&#xbf;" horiz-adv-x="451" 
d="M314 643q0 -29 -19.5 -49t-48.5 -20t-48.5 20t-19.5 49t19.5 48.5t48.5 19.5t48.5 -19.5t19.5 -48.5zM433 84q-43 -43 -93.5 -69t-114.5 -26q-91 0 -138 48t-47 126q0 36 8 62.5t21.5 47.5t32.5 37.5t42 31.5q19 13 30.5 27t16.5 31.5t6.5 41t1.5 56.5h101
q0 -44 -2.5 -76.5t-13 -58.5t-31 -48t-55.5 -45q-57 -38 -57 -98q0 -42 24.5 -63t63.5 -21q38 0 71 17t71 52z" />
    <glyph glyph-name="exclamdown" unicode="&#xa1;" horiz-adv-x="248" 
d="M192 643q0 -29 -19.5 -49t-48.5 -20t-48.5 20t-19.5 49t19.5 48.5t48.5 19.5t48.5 -19.5t19.5 -48.5zM173 0h-98v348l16 150h66l16 -150v-348z" />
    <glyph glyph-name="logicalnot" unicode="&#xac;" horiz-adv-x="550" 
d="M530 346l-179 -126q-12 -6 -19 -2q-6 5 -8.5 10t0.5 13l18 57h-297v96h297l-18 58q-4 13 8 22q8 4 19 -3z" />
    <glyph glyph-name="radical" unicode="&#x221a;" horiz-adv-x="490" 
d="M475 700l-231 -700h-99l-123 340h107l29 -98q4 -15 9.5 -34t10.5 -37.5t9 -35.5t7 -29q3 12 8 29.5t10.5 37l11 39t10.5 34.5l138 454h103z" />
    <glyph glyph-name="florin" unicode="&#x192;" horiz-adv-x="340" 
d="M309 619q-12 3 -28.5 4.5t-27.5 1.5q-31 0 -43 -13.5t-12 -42.5v-44h96v-88h-96v-578l-96 -52v630h-53v88h53v59q0 71 33 99t90 28q23 0 44.5 -2.5t39.5 -7.5v-82z" />
    <glyph glyph-name="approxequal" unicode="&#x2248;" horiz-adv-x="356" 
d="M306 185q4 -8 -3 -19l-125 -179l-126 179q-6 11 -2 19q5 6 10 8.5t13 -0.5l57 -18v525h96v-525l58 18q13 4 22 -8z" />
    <glyph glyph-name="Delta" unicode="&#x2206;" horiz-adv-x="550" 
d="M505 298h-297l18 -57q3 -8 0.5 -13t-8.5 -10q-8 -4 -19 2l-179 126l179 125q11 7 19 3q12 -9 8 -22l-18 -58h297v-96z" />
    <glyph glyph-name="guillemotleft" unicode="&#xab;" horiz-adv-x="490" 
d="M445 0h-98l-135 262l135 263h98l-130 -262zM253 0h-98l-135 262l135 263h98l-130 -262z" />
    <glyph glyph-name="guillemotright" unicode="&#xbb;" horiz-adv-x="490" 
d="M470 263l-135 -263h-98l130 262l-130 263h98zM278 263l-135 -263h-98l130 262l-130 263h98z" />
    <glyph glyph-name="ellipsis" unicode="&#x2026;" horiz-adv-x="696" 
d="M651 60q0 -30 -20.5 -50.5t-50.5 -20.5t-50.5 20.5t-20.5 50.5t20.5 51t50.5 21t50.5 -21t20.5 -51zM419 60q0 -30 -20.5 -50.5t-50.5 -20.5t-50.5 20.5t-20.5 50.5t20.5 51t50.5 21t50.5 -21t20.5 -51zM187 60q0 -30 -20.5 -50.5t-50.5 -20.5t-50.5 20.5t-20.5 50.5
t20.5 51t50.5 21t50.5 -21t20.5 -51z" />
    <glyph glyph-name="nonbreakingspace" unicode="&#xa0;" horiz-adv-x="110" 
 />
    <glyph glyph-name="Agrave" unicode="&#xc0;" horiz-adv-x="494" 
d="M469 0h-107l-41 185h-152l-40 -185h-104l172 700h101zM301 278l-26 118q-4 17 -8.5 39.5t-8.5 44.5t-7.5 40.5t-5.5 28.5q-2 -10 -5.5 -28.5t-7.5 -40t-8.5 -44t-8.5 -40.5l-26 -118h112zM297 745h-82l-145 160h135z" />
    <glyph glyph-name="Atilde" unicode="&#xc3;" horiz-adv-x="494" 
d="M469 0h-107l-41 185h-152l-40 -185h-104l172 700h101zM301 278l-26 118q-4 17 -8.5 39.5t-8.5 44.5t-7.5 40.5t-5.5 28.5q-2 -10 -5.5 -28.5t-7.5 -40t-8.5 -44t-8.5 -40.5l-26 -118h112zM417 866q0 -62 -26.5 -94t-67.5 -32q-26 0 -48.5 9.5t-57.5 30.5q-20 12 -33 12
q-15 0 -23.5 -10.5t-11.5 -36.5h-66q0 62 27.5 93t68.5 31q26 0 47.5 -9.5t56.5 -30.5q19 -12 35 -12q15 0 22.5 11.5t10.5 37.5h66z" />
    <glyph glyph-name="Otilde" unicode="&#xd5;" horiz-adv-x="513" 
d="M468 351q0 -76 -12.5 -142t-38.5 -115t-66.5 -77t-95.5 -28q-56 0 -95.5 27.5t-65 76t-37.5 114.5t-12 142t12 142t38 115t65.5 77t95.5 28q55 0 95.5 -27.5t66 -76t38 -114.5t12.5 -142zM368 349q0 49 -6 96t-19.5 84.5t-35 60.5t-53.5 23t-53 -22.5t-33.5 -59.5
t-17.5 -84t-5 -96t5.5 -96t19 -84.5t35 -60.5t53.5 -23t53 22.5t34 59.5t18 84t5 96zM424 866q0 -62 -26.5 -94t-67.5 -32q-26 0 -48.5 9.5t-57.5 30.5q-20 12 -33 12q-15 0 -23.5 -10.5t-11.5 -36.5h-66q0 62 27.5 93t68.5 31q26 0 47.5 -9.5t56.5 -30.5q19 -12 35 -12
q15 0 22.5 11.5t10.5 37.5h66z" />
    <glyph glyph-name="OE" unicode="&#x152;" horiz-adv-x="735" 
d="M702 0h-322v63q-22 -34 -53.5 -54t-71.5 -20q-56 0 -95.5 27.5t-65 76t-37.5 114.5t-12 142t12 142t38 115t65.5 77t95.5 28q42 0 74.5 -20t49.5 -58v67h309v-95h-231v-187h151v-94h-151v-229h244v-95zM368 349q0 49 -6 96t-19.5 84.5t-35 60.5t-53.5 23t-53 -22.5
t-33.5 -59.5t-17.5 -84t-5 -96t5.5 -96t19 -84.5t35 -60.5t53.5 -23t53 22.5t34 59.5t18 84t5 96z" />
    <glyph glyph-name="oe" unicode="&#x153;" horiz-adv-x="725" 
d="M686 264v-16.5t-1 -17.5h-275q5 -78 31 -113.5t68 -35.5q33 0 52.5 9t42.5 30l59 -61q-27 -30 -66 -50t-90 -20q-53 0 -88.5 24.5t-52.5 60.5q-19 -37 -54.5 -61t-86.5 -24q-41 0 -75 16.5t-59 50t-38.5 84.5t-13.5 120q0 139 51 207.5t139 68.5q48 0 82.5 -23t53.5 -61
q20 38 54 61t82 23q39 0 73 -17t59 -50.5t39 -84.5t14 -120zM588 313q-2 59 -25 96t-64 37q-76 0 -88 -133h177zM320 262q0 90 -24 136t-69 46q-91 0 -91 -182q0 -181 92 -181q45 0 68.5 49.5t23.5 131.5z" />
    <glyph glyph-name="endash" unicode="&#x2013;" horiz-adv-x="400" 
d="M360 319h-320v94h320v-94z" />
    <glyph glyph-name="emdash" unicode="&#x2014;" horiz-adv-x="550" 
d="M510 319h-470v94h470v-94z" />
    <glyph glyph-name="quotedblleft" unicode="&#x201c;" horiz-adv-x="457" 
d="M395 700l-13 -239h-119l67 239h65zM180 700l-13 -239h-119l67 239h65z" />
    <glyph glyph-name="quotedblright" unicode="&#x201d;" horiz-adv-x="457" 
d="M409 700l-67 -239h-65l13 239h119zM194 700l-67 -239h-65l13 239h119z" />
    <glyph glyph-name="quoteleft" unicode="&#x2018;" horiz-adv-x="242" 
d="M180 700l-13 -239h-119l67 239h65z" />
    <glyph glyph-name="quoteright" unicode="&#x2019;" horiz-adv-x="242" 
d="M194 700l-67 -239h-65l13 239h119z" />
    <glyph glyph-name="divide" unicode="&#xf7;" 
d="M730 346l-179 -125q-9 -5 -16 -2q-5 5 -6.5 8.5t0.5 11.5l19 61h-127v-137l63 20q10 4 18 -6q4 -8 -3 -17l-124 -178l-126 178q-5 10 -2 17q9 11 20 6l62 -20v137h-127l19 -61q2 -8 0 -11.5t-7 -8.5q-7 -3 -17 2l-177 125l179 125q9 6 15 3q10 -8 7 -19l-19 -63h127v134
l-62 -19q-7 -3 -11 -0.5t-9 7.5q-3 6 2 17l126 177l124 -178q6 -9 3 -16q-8 -9 -18 -7l-63 19v-134h127l-19 63q-3 11 6 19q7 3 16 -3z" />
    <glyph glyph-name="lozenge" unicode="&#x25ca;" 
d="M730 346l-179 -125q-9 -5 -16 -2q-5 5 -6.5 8.5t0.5 11.5l19 61h-127v-137l63 20q10 4 18 -6q4 -8 -3 -17l-124 -178l-126 178q-5 10 -2 17q9 11 20 6l62 -20v137h-127l19 -61q2 -8 0 -11.5t-7 -8.5q-7 -3 -17 2l-177 125l179 125q9 6 15 3q10 -8 7 -19l-19 -63h127v134
l-62 -19q-7 -3 -11 -0.5t-9 7.5q-3 6 2 17l126 177l124 -178q6 -9 3 -16q-8 -9 -18 -7l-63 19v-134h127l-19 63q-3 11 6 19q7 3 16 -3z" />
    <glyph glyph-name="ydieresis" unicode="&#xff;" horiz-adv-x="434" 
d="M412 525l-207 -710h-94l57 185l-146 525h102l61 -249q4 -15 8.5 -35.5l9 -41t8 -38.5t5.5 -28q2 10 6 28t8.5 39t9 41.5t8.5 35.5l62 248h102zM365 648q0 -25 -18.5 -43.5t-43.5 -18.5q-26 0 -44.5 18.5t-18.5 43.5q0 26 18.5 44.5t44.5 18.5q25 0 43.5 -18.5t18.5 -44.5
zM188 648q0 -25 -18.5 -43.5t-43.5 -18.5q-26 0 -44.5 18.5t-18.5 43.5q0 26 18.5 44.5t44.5 18.5q25 0 43.5 -18.5t18.5 -44.5z" />
    <glyph glyph-name="Ydieresis" unicode="&#x178;" horiz-adv-x="493" 
d="M471 700l-173 -387v-313h-98v310l-178 390h111l62 -146q6 -13 14 -34t16.5 -43t15 -41t9.5 -28l9.5 28.5t14.5 41t16 42.5t14 35l60 145h107zM398 802q0 -25 -18.5 -43.5t-43.5 -18.5q-26 0 -44.5 18.5t-18.5 43.5q0 26 18.5 44.5t44.5 18.5q25 0 43.5 -18.5t18.5 -44.5z
M221 802q0 -25 -18.5 -43.5t-43.5 -18.5q-26 0 -44.5 18.5t-18.5 43.5q0 26 18.5 44.5t44.5 18.5q25 0 43.5 -18.5t18.5 -44.5z" />
    <glyph glyph-name="fraction" unicode="&#x2044;" horiz-adv-x="389" 
d="M441 700l-389 -700h-104l389 700h104z" />
    <glyph glyph-name="Euro" unicode="&#x20ac;" horiz-adv-x="465" 
d="M139 390q-1 -10 -1 -19.5v-19.5v-19t1 -18h176v-77h-168q11 -67 36.5 -110.5t67.5 -43.5q39 0 59.5 28t33.5 84l91 -29q-10 -41 -25 -74t-37.5 -56t-54 -35t-74.5 -12q-55 0 -93 28.5t-62 77t-35 114t-11 140.5q0 76 12 142t37 115t63.5 77t91.5 28q44 0 76 -12.5
t54 -35.5t35.5 -54.5t21.5 -68.5l-94 -26q-15 55 -34.5 79t-59.5 24q-21 0 -37.5 -12t-28.5 -32.5t-20 -47.5t-13 -58h168v-77h-176z" />
    <glyph glyph-name="guilsinglleft" unicode="&#x2039;" horiz-adv-x="298" 
d="M253 0h-98l-135 262l135 263h98l-130 -262z" />
    <glyph glyph-name="guilsinglright" unicode="&#x203a;" horiz-adv-x="298" 
d="M278 263l-135 -263h-98l130 262l-130 263h98z" />
    <glyph glyph-name="fi" unicode="&#xfb01;" horiz-adv-x="505" 
d="M454 666q0 -24 -17.5 -41.5t-41.5 -17.5q-25 0 -42.5 17.5t-17.5 41.5q0 25 17.5 42.5t42.5 17.5q24 0 41.5 -17.5t17.5 -42.5zM278 636q-18 6 -40 6q-35 0 -48 -13.5t-13 -42.5v-61h86v-90h-86v-435h-96v435h-53v90h53v74q0 65 33.5 96t84.5 31q48 0 79 -10v-80zM443 0
h-96v525h96v-525z" />
    <glyph glyph-name="fl" unicode="&#xfb02;" horiz-adv-x="505" 
d="M443 0h-96v679l96 50v-729zM278 636q-18 6 -40 6q-35 0 -48 -13.5t-13 -42.5v-61h86v-90h-86v-435h-96v435h-53v90h53v74q0 65 33.5 96t84.5 31q48 0 79 -10v-80z" />
    <glyph glyph-name="daggerdbl" unicode="&#x2021;" horiz-adv-x="442" 
d="M410 127h-141v-227h-96v227h-141v90h141v167h-141v90h141v226h96v-226h141v-90h-141v-167h141v-90z" />
    <glyph glyph-name="periodcentered" unicode="&#xb7;" horiz-adv-x="232" 
d="M186 367q0 -29 -20.5 -49.5t-49.5 -20.5t-49.5 20.5t-20.5 49.5t20.5 50t49.5 21t49.5 -21t20.5 -50z" />
    <glyph glyph-name="quotesinglbase" unicode="&#x201a;" horiz-adv-x="242" 
d="M194 126l-67 -239h-65l13 239h119z" />
    <glyph glyph-name="quotedblbase" unicode="&#x201e;" horiz-adv-x="457" 
d="M409 126l-67 -239h-65l13 239h119zM194 126l-67 -239h-65l13 239h119z" />
    <glyph glyph-name="perthousand" unicode="&#x2030;" horiz-adv-x="1203" 
d="M347 494q0 -48 -9 -88t-27.5 -69t-47 -45t-66.5 -16t-66 16t-46 44.5t-26.5 68t-8.5 87.5t8.5 88.5t27 69.5t46.5 45t67 16q40 0 68 -16t46 -45t26 -68.5t8 -87.5zM653 700l-369 -700h-88l369 700h88zM1160 207q0 -48 -9 -88t-27.5 -69t-47 -45t-66.5 -16t-66 16
t-46 44.5t-26.5 68t-8.5 87.5t8.5 88.5t27 69.5t46.5 45t67 16q40 0 68 -16t46 -45t26 -68.5t8 -87.5zM805 207q0 -48 -9 -88t-27.5 -69t-47 -45t-66.5 -16t-66 16t-46 44.5t-26.5 68t-8.5 87.5t8.5 88.5t27 69.5t46.5 45t67 16q40 0 68 -16t46 -45t26 -68.5t8 -87.5z
M265 492q0 63 -15.5 102t-51.5 39t-50.5 -38t-14.5 -101t15 -102.5t51 -39.5q18 0 30.5 11t20.5 30.5t11.5 44.5t3.5 54zM1078 205q0 63 -15.5 102t-51.5 39t-50.5 -38t-14.5 -101t15 -102.5t51 -39.5q18 0 30.5 11t20.5 30.5t11.5 44.5t3.5 54zM723 205q0 63 -15.5 102
t-51.5 39t-50.5 -38t-14.5 -101t15 -102.5t51 -39.5q18 0 30.5 11t20.5 30.5t11.5 44.5t3.5 54z" />
    <glyph glyph-name="Acircumflex" unicode="&#xc2;" horiz-adv-x="494" 
d="M469 0h-107l-41 185h-152l-40 -185h-104l172 700h101zM301 278l-26 118q-4 17 -8.5 39.5t-8.5 44.5t-7.5 40.5t-5.5 28.5q-2 -10 -5.5 -28.5t-7.5 -40t-8.5 -44t-8.5 -40.5l-26 -118h112zM401 734h-78l-77 88l-77 -88h-76l102 160h104z" />
    <glyph glyph-name="Ecircumflex" unicode="&#xca;" horiz-adv-x="445" 
d="M412 0h-342v700h329v-95h-231v-187h151v-94h-151v-229h244v-95zM385 745h-78l-77 88l-77 -88h-76l102 160h104z" />
    <glyph glyph-name="Aacute" unicode="&#xc1;" horiz-adv-x="494" 
d="M469 0h-107l-41 185h-152l-40 -185h-104l172 700h101zM301 278l-26 118q-4 17 -8.5 39.5t-8.5 44.5t-7.5 40.5t-5.5 28.5q-2 -10 -5.5 -28.5t-7.5 -40t-8.5 -44t-8.5 -40.5l-26 -118h112zM424 905l-145 -160h-82l92 160h135z" />
    <glyph glyph-name="Edieresis" unicode="&#xcb;" horiz-adv-x="445" 
d="M412 0h-342v700h329v-95h-231v-187h151v-94h-151v-229h244v-95zM382 807q0 -25 -18.5 -43.5t-43.5 -18.5q-26 0 -44.5 18.5t-18.5 43.5q0 26 18.5 44.5t44.5 18.5q25 0 43.5 -18.5t18.5 -44.5zM205 807q0 -25 -18.5 -43.5t-43.5 -18.5q-26 0 -44.5 18.5t-18.5 43.5
q0 26 18.5 44.5t44.5 18.5q25 0 43.5 -18.5t18.5 -44.5z" />
    <glyph glyph-name="Egrave" unicode="&#xc8;" horiz-adv-x="445" 
d="M412 0h-342v700h329v-95h-231v-187h151v-94h-151v-229h244v-95zM282 745h-82l-145 160h135z" />
    <glyph glyph-name="Iacute" unicode="&#xcd;" horiz-adv-x="248" 
d="M173 0h-98v700h98v-700zM307 905l-145 -160h-82l92 160h135z" />
    <glyph glyph-name="Icircumflex" unicode="&#xce;" horiz-adv-x="248" 
d="M173 0h-98v700h98v-700zM279 738h-78l-77 88l-77 -88h-76l102 160h104z" />
    <glyph glyph-name="Idieresis" unicode="&#xcf;" horiz-adv-x="248" 
d="M173 0h-98v700h98v-700zM276 807q0 -25 -18.5 -43.5t-43.5 -18.5q-26 0 -44.5 18.5t-18.5 43.5q0 26 18.5 44.5t44.5 18.5q25 0 43.5 -18.5t18.5 -44.5zM99 807q0 -25 -18.5 -43.5t-43.5 -18.5q-26 0 -44.5 18.5t-18.5 43.5q0 26 18.5 44.5t44.5 18.5q25 0 43.5 -18.5
t18.5 -44.5z" />
    <glyph glyph-name="Igrave" unicode="&#xcc;" horiz-adv-x="248" 
d="M173 0h-98v700h98v-700zM170 745h-82l-145 160h135z" />
    <glyph glyph-name="Oacute" unicode="&#xd3;" horiz-adv-x="513" 
d="M468 351q0 -76 -12.5 -142t-38.5 -115t-66.5 -77t-95.5 -28q-56 0 -95.5 27.5t-65 76t-37.5 114.5t-12 142t12 142t38 115t65.5 77t95.5 28q55 0 95.5 -27.5t66 -76t38 -114.5t12.5 -142zM368 349q0 49 -6 96t-19.5 84.5t-35 60.5t-53.5 23t-53 -22.5t-33.5 -59.5
t-17.5 -84t-5 -96t5.5 -96t19 -84.5t35 -60.5t53.5 -23t53 22.5t34 59.5t18 84t5 96zM431 905l-145 -160h-82l92 160h135z" />
    <glyph glyph-name="Ocircumflex" unicode="&#xd4;" horiz-adv-x="513" 
d="M468 351q0 -76 -12.5 -142t-38.5 -115t-66.5 -77t-95.5 -28q-56 0 -95.5 27.5t-65 76t-37.5 114.5t-12 142t12 142t38 115t65.5 77t95.5 28q55 0 95.5 -27.5t66 -76t38 -114.5t12.5 -142zM368 349q0 49 -6 96t-19.5 84.5t-35 60.5t-53.5 23t-53 -22.5t-33.5 -59.5
t-17.5 -84t-5 -96t5.5 -96t19 -84.5t35 -60.5t53.5 -23t53 22.5t34 59.5t18 84t5 96zM408 740h-78l-77 88l-77 -88h-76l102 160h104z" />
    <glyph glyph-name="apple" unicode="&#xf8ff;" 
d="M730 346l-179 -125q-9 -5 -16 -2q-5 5 -6.5 8.5t0.5 11.5l19 61h-127v-137l63 20q10 4 18 -6q4 -8 -3 -17l-124 -178l-126 178q-5 10 -2 17q9 11 20 6l62 -20v137h-127l19 -61q2 -8 0 -11.5t-7 -8.5q-7 -3 -17 2l-177 125l179 125q9 6 15 3q10 -8 7 -19l-19 -63h127v134
l-62 -19q-7 -3 -11 -0.5t-9 7.5q-3 6 2 17l126 177l124 -178q6 -9 3 -16q-8 -9 -18 -7l-63 19v-134h127l-19 63q-3 11 6 19q7 3 16 -3z" />
    <glyph glyph-name="Ograve" unicode="&#xd2;" horiz-adv-x="513" 
d="M468 351q0 -76 -12.5 -142t-38.5 -115t-66.5 -77t-95.5 -28q-56 0 -95.5 27.5t-65 76t-37.5 114.5t-12 142t12 142t38 115t65.5 77t95.5 28q55 0 95.5 -27.5t66 -76t38 -114.5t12.5 -142zM368 349q0 49 -6 96t-19.5 84.5t-35 60.5t-53.5 23t-53 -22.5t-33.5 -59.5
t-17.5 -84t-5 -96t5.5 -96t19 -84.5t35 -60.5t53.5 -23t53 22.5t34 59.5t18 84t5 96zM304 745h-82l-145 160h135z" />
    <glyph glyph-name="Uacute" unicode="&#xda;" horiz-adv-x="526" 
d="M459 208q0 -103 -52.5 -161t-143.5 -58q-44 0 -80 15.5t-61.5 43.5t-40 67t-14.5 87v498h98v-494q0 -22 5 -43t16.5 -37.5t30.5 -27t46 -10.5q29 0 48 10.5t30.5 27.5t16 38t4.5 41v495h97v-492zM441 895l-145 -160h-82l92 160h135z" />
    <glyph glyph-name="Ucircumflex" unicode="&#xdb;" horiz-adv-x="526" 
d="M459 208q0 -103 -52.5 -161t-143.5 -58q-44 0 -80 15.5t-61.5 43.5t-40 67t-14.5 87v498h98v-494q0 -22 5 -43t16.5 -37.5t30.5 -27t46 -10.5q29 0 48 10.5t30.5 27.5t16 38t4.5 41v495h97v-492zM418 745h-78l-77 88l-77 -88h-76l102 160h104z" />
    <glyph glyph-name="Ugrave" unicode="&#xd9;" horiz-adv-x="526" 
d="M459 208q0 -103 -52.5 -161t-143.5 -58q-44 0 -80 15.5t-61.5 43.5t-40 67t-14.5 87v498h98v-494q0 -22 5 -43t16.5 -37.5t30.5 -27t46 -10.5q29 0 48 10.5t30.5 27.5t16 38t4.5 41v495h97v-492zM314 735h-82l-145 160h135z" />
    <glyph glyph-name="dotlessi" unicode="&#x131;" horiz-adv-x="220" 
d="M158 0h-96v525h96v-525z" />
    <glyph glyph-name="circumflex" unicode="&#x2c6;" horiz-adv-x="400" 
d="M354 595h-78l-77 88l-77 -88h-76l102 160h104z" />
    <glyph glyph-name="tilde" unicode="&#x2dc;" horiz-adv-x="400" 
d="M370 716q0 -62 -26.5 -94t-67.5 -32q-26 0 -48.5 9.5t-57.5 30.5q-20 12 -33 12q-15 0 -23.5 -10.5t-11.5 -36.5h-66q0 62 27.5 93t68.5 31q26 0 47.5 -9.5t56.5 -30.5q19 -12 35 -12q15 0 22.5 11.5t10.5 37.5h66z" />
    <glyph glyph-name="macron" unicode="&#xaf;" horiz-adv-x="400" 
d="M330 610h-260v85h260v-85z" />
    <glyph glyph-name="breve" unicode="&#x2d8;" horiz-adv-x="400" 
d="M355 755q-10 -72 -47.5 -116t-107.5 -44q-67 0 -106 42t-47 118h69q8 -39 27.5 -59.5t58.5 -20.5q38 0 56.5 20.5t27.5 59.5h69z" />
    <glyph glyph-name="dotaccent" unicode="&#x2d9;" horiz-adv-x="400" 
d="M264 659q0 -26 -19 -45t-45 -19t-45.5 19t-19.5 45t19.5 45.5t45.5 19.5t45 -19.5t19 -45.5z" />
    <glyph glyph-name="ring" unicode="&#x2da;" horiz-adv-x="400" 
d="M313 707q0 -49 -32 -80.5t-81 -31.5t-81 31.5t-32 80.5t32 81t81 32t81 -32t32 -81zM255 707q0 24 -16 40t-39 16t-39 -16t-16 -40t16 -40t39 -16t39 16t16 40z" />
    <glyph glyph-name="cedilla" unicode="&#xb8;" horiz-adv-x="400" 
d="M310 -110q0 -43 -28 -63t-79 -20q-30 0 -53.5 7.5t-47.5 21.5l20 32q17 -9 36.5 -13t36.5 -4q25 0 37 9.5t12 26.5t-7.5 25t-18.5 8q-12 0 -19 -2.5t-18 -9.5l-32 13l19 91h47l-11 -60q15 9 42 9q26 0 45 -17t19 -54z" />
    <glyph glyph-name="hungarumlaut" unicode="&#x2dd;" horiz-adv-x="400" 
d="M424 755l-145 -160h-82l97 160h130zM234 755l-145 -160h-82l97 160h130z" />
    <glyph glyph-name="ogonek" unicode="&#x2db;" horiz-adv-x="400" 
d="M306 -150q-26 -19 -53 -31t-58 -12q-46 0 -69 20.5t-23 57.5q0 33 24 62.5t62 52.5h50q-32 -32 -45.5 -56t-13.5 -44q0 -19 9 -30t29 -11q15 0 29 5t37 19z" />
    <glyph glyph-name="caron" unicode="&#x2c7;" horiz-adv-x="400" 
d="M354 755l-102 -160h-104l-102 160h78l77 -88l77 88h76z" />
    <glyph glyph-name="Eth" unicode="&#xd0;" horiz-adv-x="517" 
d="M472 353q0 -78 -14 -143t-41.5 -111.5t-69.5 -72.5t-97 -26h-170v321h-50v90h50v289h170q58 0 100 -25t69 -70.5t40 -109.5t13 -142zM371 353q0 46 -5.5 91t-19.5 80.5t-38 57.5t-61 22h-71v-193h81v-90h-81v-225h74q35 0 58.5 23t37.5 59.5t19.5 82.5t5.5 92z" />
    <glyph glyph-name="eth" unicode="&#xf0;" horiz-adv-x="456" 
d="M417 291q0 -81 -11 -138.5t-34.5 -93.5t-59.5 -53t-87 -17q-41 0 -75 14.5t-59 44t-38.5 75t-13.5 107.5q0 121 48.5 184.5t128.5 63.5q35 0 58.5 -10t46.5 -36q-10 75 -47 125l-39 -41l-56 49l39 41q-34 19 -76 23v82q80 -8 135 -43l41 43l56 -49l-42 -44
q85 -103 85 -327zM320 232q0 81 -24 116.5t-69 35.5t-68 -35.5t-23 -116.5t23.5 -116t68.5 -35q92 0 92 151z" />
    </font>
</defs>
</svg>
